<svg width="15" height="15" viewBox="0 0 15 15" fill="none" xmlns="http://www.w3.org/2000/svg">
<path d="M14.8326 14.0243C14.8857 14.0773 14.9278 14.1404 14.9565 14.2097C14.9852 14.2791 15 14.3534 15 14.4284C15 14.5035 14.9852 14.5778 14.9565 14.6472C14.9278 14.7165 14.8857 14.7795 14.8326 14.8326C14.7795 14.8857 14.7165 14.9278 14.6472 14.9565C14.5778 14.9852 14.5035 15 14.4284 15C14.3534 15 14.279 14.9852 14.2097 14.9565C14.1404 14.9278 14.0774 14.8857 14.0243 14.8326L7.5 8.31794L0.975725 14.8326C0.868536 14.9398 0.723155 15 0.571567 15C0.419978 15 0.274597 14.9398 0.167408 14.8326C0.0602184 14.7254 3.91244e-09 14.58 0 14.4284C-3.91244e-09 14.2768 0.0602184 14.1315 0.167408 14.0243L6.68206 7.5L0.167408 0.975725C0.0602184 0.868536 -1.12942e-09 0.723155 0 0.571567C1.12943e-09 0.419978 0.0602184 0.274597 0.167408 0.167408C0.274597 0.0602184 0.419978 1.12942e-09 0.571567 0C0.723155 -1.12943e-09 0.868536 0.0602184 0.975725 0.167408L7.5 6.68206L14.0243 0.167408C14.1315 0.0602184 14.2768 -3.91244e-09 14.4284 0C14.58 3.91244e-09 14.7254 0.0602184 14.8326 0.167408C14.9398 0.274597 15 0.419978 15 0.571567C15 0.723155 14.9398 0.868536 14.8326 0.975725L8.31794 7.5L14.8326 14.0243Z" fill="white"/>
</svg>
