<svg width="24" height="24" viewBox="0 0 24 24" fill="none" xmlns="http://www.w3.org/2000/svg">
<path d="M14.875 12.6003C14.4349 12.1951 13.908 11.8662 13.323 11.6317C14.155 11.1923 14.8765 10.6153 15.4457 9.93439C16.0148 9.25348 16.4201 8.48226 16.638 7.66571C16.6548 7.61014 16.6584 7.55224 16.6485 7.49545C16.6387 7.43867 16.6156 7.38415 16.5808 7.33515C16.5459 7.28614 16.4999 7.24364 16.4454 7.21018C16.391 7.17671 16.3293 7.15295 16.264 7.14031C16.1987 7.12768 16.131 7.12642 16.0651 7.13662C15.9992 7.14682 15.9364 7.16826 15.8803 7.19968C15.8243 7.23109 15.7761 7.27184 15.7388 7.31951C15.7015 7.36717 15.6757 7.42078 15.663 7.47714C15.4409 8.31322 14.992 9.09264 14.3526 9.7521C13.7132 10.4116 12.9013 10.9325 11.983 11.2726C11.874 11.2571 11.763 11.2529 11.654 11.2434V7.57314C11.6512 7.53545 11.6425 7.49825 11.628 7.46257C11.625 7.44407 11.6207 7.42575 11.615 7.40771C11.5918 7.36247 11.5597 7.321 11.52 7.28514C11.515 7.28086 11.513 7.27486 11.509 7.27143C11.4732 7.24312 11.4328 7.21945 11.389 7.20114C11.375 7.19429 11.364 7.184 11.35 7.17886C11.3165 7.16985 11.282 7.16382 11.247 7.16086C11.2177 7.15297 11.1875 7.14752 11.157 7.14457L10.502 7.14286H10.5C10.3674 7.14263 10.2401 7.18756 10.1462 7.26778C10.0522 7.34799 9.99926 7.45691 9.999 7.57057C9.99873 7.68424 10.0512 7.79333 10.1447 7.87387C10.2383 7.9544 10.3654 7.99977 10.498 8H10.65V12.68C10.65 12.686 10.654 12.6911 10.654 12.6971V13.5526C8.52506 12.0057 7.10522 9.86175 6.647 7.502C6.62258 7.39098 6.54896 7.29237 6.44158 7.22685C6.33419 7.16133 6.20138 7.13399 6.071 7.15057C5.94026 7.16945 5.82361 7.23207 5.74673 7.32466C5.66984 7.41724 5.639 7.53221 5.661 7.64429C6.22393 10.5184 8.09404 13.0838 10.861 14.7774C10.871 14.7834 10.883 14.7809 10.892 14.786C10.9693 14.8314 11.0603 14.8567 11.154 14.8589C11.2276 14.8581 11.3 14.8431 11.366 14.8151L11.382 14.8117C11.392 14.8074 11.398 14.7963 11.408 14.7911C11.4836 14.7528 11.5458 14.6977 11.588 14.6317C11.6296 14.5705 11.6523 14.5011 11.654 14.4303V12.0817C12.6079 12.184 13.4884 12.5731 14.139 13.1797L15.786 14.72C15.8756 14.8037 16.0004 14.8534 16.1328 14.8582C16.1983 14.8606 16.2638 14.8519 16.3254 14.8326C16.3871 14.8133 16.4437 14.7838 16.492 14.7457C16.5403 14.7077 16.5794 14.6618 16.6071 14.6108C16.6348 14.5598 16.6504 14.5047 16.6532 14.4485C16.656 14.3923 16.6458 14.3362 16.6233 14.2833C16.6008 14.2305 16.5664 14.182 16.522 14.1406L14.875 12.6003ZM14.573 2H8.437C2.53 2 1 3.30886 1 8.366V13.6254C1 18.6894 2.527 20 8.427 20H14.563C20.471 20 22 18.6911 22 13.634V8.37457C22 3.31057 20.473 2 14.573 2ZM21 13.634C21 18.2163 19.917 19.1429 14.562 19.1429H8.428C3.08 19.1429 2 18.2146 2 13.6246V8.36686C2 3.78286 3.083 2.85714 8.438 2.85714H14.573C19.919 2.85714 21 3.78543 21 8.37543V13.634Z" fill="white"/>
</svg>
