<svg width="24" height="24" viewBox="0 0 24 24" fill="none" xmlns="http://www.w3.org/2000/svg">
<g clip-path="url(#clip0_262_178)">
<path d="M15.3504 10.6219L10.9488 8.24588C10.6904 8.10639 10.3974 8.03307 10.0991 8.03328C9.80095 8.03348 9.50805 8.1072 9.24983 8.24705C8.99162 8.38689 8.77717 8.58793 8.62801 8.83001C8.47885 9.07209 8.40022 9.34669 8.4 9.62625V14.376C8.3964 14.9453 8.7204 15.4718 9.2472 15.753C9.50548 15.8945 9.79915 15.9692 10.0983 15.9696C10.3974 15.97 10.6913 15.896 10.95 15.7552L15.3504 13.3792C15.6089 13.2399 15.8236 13.0392 15.973 12.7972C16.1223 12.5553 16.2009 12.2807 16.2009 12.0011C16.2009 11.7216 16.1223 11.447 15.973 11.205C15.8236 10.9631 15.6089 10.7623 15.3504 10.623V10.6219ZM14.7504 12.4016L10.3512 14.7788C10.275 14.8207 10.1882 14.8428 10.0998 14.8428C10.0114 14.8428 9.92463 14.8207 9.8484 14.7788C9.77212 14.7383 9.70882 14.6793 9.66513 14.6081C9.62143 14.5369 9.59894 14.4559 9.6 14.3737V9.62625C9.59916 9.54427 9.62175 9.46357 9.66543 9.39255C9.70912 9.32152 9.77229 9.26276 9.8484 9.22237C9.92397 9.17926 10.0107 9.15645 10.0992 9.15645C10.1877 9.15645 10.2744 9.17926 10.35 9.22237L14.7504 11.5995C14.8263 11.6397 14.8894 11.698 14.9334 11.7686C14.9773 11.8392 15.0005 11.9194 15.0005 12.0011C15.0005 12.0828 14.9773 12.1631 14.9334 12.2336C14.8894 12.3042 14.8263 12.3626 14.7504 12.4028V12.4016ZM20.4 3H3.6C2.64551 3.00089 1.73039 3.35676 1.05547 3.9895C0.380544 4.62224 0.000953058 5.48017 0 6.375V17.625C0.000953058 18.5198 0.380544 19.3778 1.05547 20.0105C1.73039 20.6432 2.64551 20.9991 3.6 21H20.4C21.3545 20.9991 22.2696 20.6432 22.9445 20.0105C23.6195 19.3778 23.999 18.5198 24 17.625V6.375C23.999 5.48017 23.6195 4.62224 22.9445 3.9895C22.2696 3.35676 21.3545 3.00089 20.4 3ZM22.8 17.625C22.799 18.2215 22.5459 18.7932 22.096 19.215C21.6461 19.6368 21.0362 19.8741 20.4 19.875H3.6C2.96377 19.8741 2.35388 19.6368 1.904 19.215C1.45411 18.7932 1.20095 18.2215 1.2 17.625V6.375C1.20095 5.77854 1.45411 5.20676 1.904 4.785C2.35388 4.36323 2.96377 4.12589 3.6 4.125H20.4C21.0362 4.12589 21.6461 4.36323 22.096 4.785C22.5459 5.20676 22.799 5.77854 22.8 6.375V17.625Z" fill="white"/>
</g>
<defs>
<clipPath id="clip0_262_178">
<rect width="24" height="24" fill="white"/>
</clipPath>
</defs>
</svg>
