<svg width="27" height="18" viewBox="0 0 27 18" fill="none" xmlns="http://www.w3.org/2000/svg">
<path d="M25.533 0.273615C25.3266 0.139951 25.0756 0.0509934 24.8069 0.0163053C24.5382 -0.0183827 24.262 0.00251077 24.008 0.0767398L0.945477 6.87361C0.645763 6.96305 0.392474 7.12256 0.223184 7.32849C0.0538948 7.53442 -0.0223751 7.77579 0.00568965 8.0168C0.0337544 8.2578 0.164659 8.48561 0.378982 8.66641C0.593305 8.84721 0.87963 8.97138 1.19548 9.02049L7.45798 9.96736V15.7611C7.45418 15.9843 7.54049 16.2031 7.70558 16.3889C7.87067 16.5746 8.10681 16.7185 8.38298 16.8017C8.56991 16.8575 8.76928 16.8862 8.97048 16.8861C9.16574 16.8863 9.3591 16.8573 9.53935 16.801C9.71959 16.7447 9.88313 16.6621 10.0205 16.558L13.5955 13.8767L18.8705 17.3549C19.1408 17.5384 19.4934 17.6388 19.858 17.6361C20.0151 17.6358 20.1712 17.6168 20.3205 17.5799C20.5662 17.5194 20.7872 17.4126 20.9623 17.2699C21.1374 17.1271 21.2607 16.953 21.3205 16.7642L26.0205 1.37049C26.082 1.17172 26.069 0.964066 25.983 0.770484C25.897 0.576903 25.7412 0.40494 25.533 0.273615ZM0.995477 7.95174C0.980609 7.87048 1.00358 7.78787 1.06051 7.71784C1.11745 7.64781 1.20485 7.59466 1.30798 7.56736L22.458 1.34236L7.84548 9.25486L1.39548 8.28924C1.28805 8.2747 1.19023 8.23353 1.11771 8.17234C1.04518 8.11114 1.00214 8.03346 0.995477 7.95174ZM9.30798 16.0236C9.24006 16.0766 9.15245 16.1129 9.05657 16.128C8.9607 16.143 8.861 16.1361 8.77048 16.108C8.67831 16.08 8.59935 16.0321 8.54368 15.9703C8.48802 15.9085 8.45818 15.8357 8.45798 15.7611V10.483L12.8455 13.3799L9.30798 16.0236ZM25.0455 1.21111L20.3455 16.5955C20.3267 16.6593 20.2855 16.7182 20.2262 16.766C20.1668 16.8138 20.0915 16.8488 20.008 16.8674C19.9273 16.8891 19.8402 16.8936 19.7563 16.8804C19.6724 16.8671 19.5951 16.8367 19.533 16.7924L8.75798 9.68611L24.9705 0.90174C25.0114 0.946428 25.0392 0.997094 25.0521 1.05041C25.065 1.10373 25.0628 1.1585 25.0455 1.21111Z" fill="white"/>
</svg>
