<svg width="18" height="18" viewBox="0 0 18 18" fill="none" xmlns="http://www.w3.org/2000/svg">
<path d="M8.28107 10.1061L8.53713 9.85H8.175H1C0.754527 9.85 0.556049 9.76848 0.394251 9.60612L0.393881 9.60575C0.231519 9.44395 0.15 9.24547 0.15 9C0.15 8.75452 0.231531 8.5556 0.394066 8.39307C0.555827 8.23131 0.754362 8.15 1 8.15H8.175H8.53713L8.28107 7.89393L6.43107 6.04393C6.25826 5.87113 6.175 5.67158 6.175 5.438C6.175 5.20365 6.25834 5.00379 6.43107 4.83107L6.43117 4.83117L6.43557 4.82636C6.59002 4.65787 6.779 4.575 7.013 4.575C7.25051 4.575 7.44053 4.65266 7.59393 4.80607L11.1939 8.40607C11.2804 8.49255 11.3382 8.58245 11.3717 8.67548C11.4069 8.77476 11.425 8.88257 11.425 9C11.425 9.11743 11.4069 9.22524 11.3717 9.32452C11.3382 9.41756 11.2804 9.50745 11.1939 9.59393L7.59393 13.1939C7.42234 13.3655 7.2303 13.4391 7.00936 13.4253C6.78011 13.411 6.59126 13.3272 6.43547 13.1733C6.27701 12.9841 6.2 12.7737 6.2 12.537C6.2 12.2995 6.27766 12.1095 6.43107 11.9561L8.28107 10.1061ZM9.39388 16.3943L9.39425 16.3939C9.55605 16.2315 9.75453 16.15 10 16.15H16H16.15V16V2V1.85H16H10C9.75453 1.85 9.55605 1.76848 9.39425 1.60612L9.39388 1.60575C9.23152 1.44395 9.15 1.24547 9.15 1C9.15 0.754521 9.23153 0.555601 9.39407 0.393066C9.55583 0.231305 9.75436 0.15 10 0.15H16C16.5099 0.15 16.9429 0.329674 17.307 0.693156C17.6704 1.05722 17.85 1.49014 17.85 2V16C17.85 16.5099 17.6704 16.9429 17.3069 17.3069C16.9429 17.6704 16.5099 17.85 16 17.85H10C9.75453 17.85 9.55605 17.7685 9.39425 17.6061L9.39388 17.6057C9.23152 17.444 9.15 17.2455 9.15 17C9.15 16.7545 9.23152 16.556 9.39388 16.3943Z" fill="#333333" stroke="black" stroke-width="0.3"/>
</svg>
