<svg width="101" height="91" viewBox="0 0 101 91" fill="none" xmlns="http://www.w3.org/2000/svg">
<path d="M49.8986 4.99002L18.7109 45.3261L49.8986 85.6622L81.918 45.3261L49.8986 4.99002Z" stroke="white" stroke-width="0.831672"/>
<g clip-path="url(#clip0_262_150)">
<path d="M52.5117 65.5417L52.719 65.8982L53.1019 65.2324C53.1019 65.2324 53.7227 63.8587 53.7587 64.7502C53.9635 65.5776 54.0696 64.7031 54.0696 64.7031C54.1039 64.605 54.3306 62.552 54.4297 64.8407C54.5292 67.1279 54.6609 64.9357 54.7357 64.9945C55.8812 65.8947 57.4096 68.4682 57.4096 68.4682H54.2134L54.3323 68.6725H57.7832L54.1424 62.4115L52.5117 65.5417Z" fill="white"/>
<path d="M51.732 65.0895L51.4326 64.5743L46.4158 55.9523L39.5664 69.103H49.0738H54.0659L53.8936 68.8065L51.732 65.0895ZM49.6671 68.6726H49.2983H40.3171L44.2303 61.8785C44.2303 61.8785 45.5362 58.9929 45.6094 60.8644C46.0405 62.6018 46.264 60.7654 46.264 60.7654C46.3358 60.5605 46.8106 56.2468 47.0206 61.0534C47.231 65.8602 47.5051 61.253 47.6632 61.3768C48.7546 62.2362 50.0119 63.8183 51.06 65.2897C51.1633 65.4359 51.2659 65.5808 51.3657 65.7241C52.4727 67.3156 53.2788 68.6726 53.2788 68.6726H49.6671Z" fill="white"/>
<path d="M49.8242 59.6007L51.3509 61.9988H54.4039L55.9309 59.6007L54.4039 57.2026H51.3509L49.8242 59.6007ZM52.0888 59.8207H51.2864V59.601H52.0888V59.8207ZM53.847 57.9699L54.5755 59.2499H51.1797L51.9079 57.9699H53.847Z" fill="white"/>
<path d="M53.6409 56.4128H52.1094V56.8192H53.6409V56.4128Z" fill="white"/>
<path d="M53.3275 54.6157L53.3601 54.5512L52.2719 54.1042L52.2452 54.1571L47.3092 52.0692L47.1172 52.4426L52.058 54.5327L52.0549 54.538L52.284 54.632L52.259 54.6883L53.1522 55.4987L52.6087 55.9912L52.8347 56.1959L53.6034 55.4987L52.9574 54.913L60.6403 58.163L60.832 57.7896L53.3275 54.6157Z" fill="white"/>
</g>
<line x1="22.2557" y1="45.7489" x2="79.1328" y2="45.2543" stroke="white" stroke-width="0.494584"/>
<path d="M33.2518 41.8434C33.2518 41.6792 33.226 41.5343 33.1745 41.4087C33.1262 41.2799 33.0393 41.164 32.9137 41.0609C32.7913 40.9579 32.6207 40.8597 32.4017 40.7663C32.186 40.6729 31.9123 40.5779 31.5806 40.4813C31.2329 40.3783 30.9189 40.264 30.6388 40.1384C30.3587 40.0096 30.1188 39.8631 29.9191 39.6989C29.7195 39.5347 29.5665 39.3463 29.4603 39.1338C29.354 38.9213 29.3009 38.6782 29.3009 38.4045C29.3009 38.1308 29.3572 37.878 29.4699 37.6462C29.5826 37.4143 29.7436 37.2131 29.9529 37.0424C30.1655 36.8686 30.4182 36.7333 30.7112 36.6367C31.0043 36.5401 31.3311 36.4918 31.6917 36.4918C32.2198 36.4918 32.6674 36.5933 33.0344 36.7961C33.4047 36.9957 33.6865 37.2582 33.8797 37.5834C34.0729 37.9054 34.1695 38.2499 34.1695 38.617H33.2421C33.2421 38.353 33.1858 38.1195 33.0731 37.9167C32.9604 37.7106 32.7897 37.5496 32.5611 37.4337C32.3325 37.3145 32.0427 37.255 31.6917 37.255C31.3601 37.255 31.0864 37.3049 30.8706 37.4047C30.6549 37.5045 30.4939 37.6397 30.3876 37.8104C30.2846 37.981 30.2331 38.1759 30.2331 38.3948C30.2331 38.5429 30.2637 38.6782 30.3248 38.8005C30.3892 38.9197 30.4875 39.0308 30.6195 39.1338C30.7547 39.2368 30.9254 39.3318 31.1314 39.4188C31.3407 39.5057 31.5903 39.5894 31.8801 39.6699C32.2794 39.7826 32.6239 39.9082 32.9137 40.0466C33.2035 40.1851 33.4418 40.3413 33.6285 40.5151C33.8185 40.6858 33.9586 40.8806 34.0487 41.0996C34.1421 41.3153 34.1888 41.56 34.1888 41.8337C34.1888 42.1203 34.1308 42.3795 34.0149 42.6113C33.899 42.8432 33.7332 43.0412 33.5174 43.2054C33.3017 43.3696 33.0425 43.4968 32.7398 43.587C32.4403 43.6739 32.1055 43.7174 31.7352 43.7174C31.41 43.7174 31.0896 43.6723 30.774 43.5821C30.4617 43.492 30.1767 43.3568 29.9191 43.1764C29.6648 42.9961 29.4603 42.7739 29.3057 42.5099C29.1544 42.2427 29.0787 41.9335 29.0787 41.5826H30.0061C30.0061 41.8241 30.0528 42.0317 30.1461 42.2056C30.2395 42.3763 30.3667 42.518 30.5277 42.6307C30.6919 42.7434 30.8771 42.8271 31.0831 42.8818C31.2924 42.9333 31.5098 42.9591 31.7352 42.9591C32.0604 42.9591 32.3357 42.914 32.5611 42.8239C32.7865 42.7337 32.9572 42.6049 33.0731 42.4375C33.1922 42.27 33.2518 42.072 33.2518 41.8434ZM36.3091 36.5884V43.6208H35.3769V36.5884H36.3091ZM40.5546 36.5884L37.6325 39.8679L35.9903 41.5729L35.8358 40.5779L37.0722 39.2159L39.4341 36.5884H40.5546ZM39.6563 43.6208L37.0529 40.1915L37.6084 39.4526L40.7671 43.6208H39.6563ZM42.588 36.5884V43.6208H41.6558V36.5884H42.588ZM46.0076 40.264V40.9981H43.6506V40.264H46.0076ZM49.6107 40.8629H47.7319V40.1046H49.6107C49.9746 40.1046 50.2692 40.0466 50.4946 39.9307C50.72 39.8148 50.8842 39.6538 50.9873 39.4477C51.0935 39.2417 51.1466 39.0066 51.1466 38.7426C51.1466 38.5011 51.0935 38.2741 50.9873 38.0615C50.8842 37.849 50.72 37.6784 50.4946 37.5496C50.2692 37.4176 49.9746 37.3515 49.6107 37.3515H47.9492V43.6208H47.0171V36.5884H49.6107C50.142 36.5884 50.5912 36.6802 50.9583 36.8637C51.3253 37.0473 51.6039 37.3016 51.7938 37.6269C51.9838 37.9488 52.0788 38.3175 52.0788 38.7329C52.0788 39.1837 51.9838 39.5685 51.7938 39.8873C51.6039 40.206 51.3253 40.4491 50.9583 40.6166C50.5912 40.7808 50.142 40.8629 49.6107 40.8629ZM55.1941 37.2115L52.8661 43.6208H51.9146L54.5952 36.5884H55.2086L55.1941 37.2115ZM57.1454 43.6208L54.8125 37.2115L54.7981 36.5884H55.4115L58.1017 43.6208H57.1454ZM57.0247 41.0175V41.7806H53.0738V41.0175H57.0247ZM59.0436 36.5884H61.3716C61.8997 36.5884 62.3456 36.6689 62.7095 36.8299C63.0765 36.9909 63.3551 37.2292 63.545 37.5447C63.7382 37.8571 63.8348 38.2419 63.8348 38.6991C63.8348 39.0211 63.7688 39.3157 63.6368 39.583C63.508 39.847 63.3213 40.0724 63.0765 40.2592C62.8351 40.4427 62.5453 40.5795 62.2072 40.6697L61.9463 40.7711H59.7584L59.7487 40.0128H61.4006C61.7354 40.0128 62.014 39.9549 62.2361 39.839C62.4583 39.7198 62.6258 39.5604 62.7385 39.3608C62.8512 39.1612 62.9075 38.9406 62.9075 38.6991C62.9075 38.4286 62.8544 38.192 62.7481 37.9891C62.6419 37.7862 62.4744 37.6301 62.2458 37.5206C62.0204 37.4079 61.729 37.3515 61.3716 37.3515H59.9757V43.6208H59.0436V36.5884ZM63.1538 43.6208L61.444 40.433L62.4148 40.4282L64.1488 43.5628V43.6208H63.1538ZM66.0711 36.5884V43.6208H65.1389V36.5884H66.0711ZM70.3166 36.5884L67.3945 39.8679L65.7523 41.5729L65.5978 40.5779L66.8342 39.2159L69.1961 36.5884H70.3166ZM69.4182 43.6208L66.8149 40.1915L67.3703 39.4526L70.5291 43.6208H69.4182Z" fill="#FFFEFE"/>
<defs>
<clipPath id="clip0_262_150">
<rect width="21.2671" height="19.2888" fill="white" transform="translate(39.5664 50.942)"/>
</clipPath>
</defs>
</svg>
