<svg width="49" height="43" viewBox="0 0 49 43" fill="none" xmlns="http://www.w3.org/2000/svg">
<path d="M45.2736 35.3811H41.5051V19.3925C41.506 19.1177 41.441 18.8458 41.3144 18.5946C41.1878 18.3434 41.0023 18.1184 40.7702 17.9345L25.6961 5.87262C25.2793 5.53731 24.7348 5.35135 24.1699 5.35135C23.6049 5.35135 23.0605 5.53731 22.6436 5.87262L7.56958 17.9345C7.33744 18.1184 7.15201 18.3434 7.02539 18.5946C6.89877 18.8458 6.8338 19.1177 6.83472 19.3925V35.3811H3.0662C2.86631 35.3811 2.6746 35.4509 2.53325 35.5752C2.39191 35.6995 2.3125 35.868 2.3125 36.0438C2.3125 36.2196 2.39191 36.3881 2.53325 36.5124C2.6746 36.6367 2.86631 36.7065 3.0662 36.7065H45.2736C45.4735 36.7065 45.6652 36.6367 45.8065 36.5124C45.9479 36.3881 46.0273 36.2196 46.0273 36.0438C46.0273 35.868 45.9479 35.6995 45.8065 35.5752C45.6652 35.4509 45.4735 35.3811 45.2736 35.3811ZM8.34212 19.3925C8.34231 19.3018 8.36421 19.2121 8.40642 19.1293C8.44862 19.0465 8.51018 18.9725 8.58708 18.912L23.6611 6.85016C23.8001 6.73839 23.9816 6.67641 24.1699 6.67641C24.3582 6.67641 24.5397 6.73839 24.6786 6.85016L39.7527 18.912C39.8296 18.9725 39.8912 19.0465 39.9334 19.1293C39.9756 19.2121 39.9975 19.3018 39.9977 19.3925V35.3811H29.4458V26.7655C29.4458 26.2382 29.2076 25.7324 28.7835 25.3596C28.3595 24.9867 27.7844 24.7772 27.1847 24.7772H21.1551C20.5554 24.7772 19.9803 24.9867 19.5562 25.3596C19.1322 25.7324 18.894 26.2382 18.894 26.7655V35.3811H8.34212V19.3925ZM27.9384 35.3811H20.4014V26.7655C20.4014 26.5897 20.4808 26.4211 20.6221 26.2968C20.7635 26.1725 20.9552 26.1027 21.1551 26.1027H27.1847C27.3846 26.1027 27.5763 26.1725 27.7176 26.2968C27.859 26.4211 27.9384 26.5897 27.9384 26.7655V35.3811Z" fill="white"/>
</svg>
