<svg width="48" height="48" viewBox="0 0 48 48" fill="none" xmlns="http://www.w3.org/2000/svg">
<path d="M43.9086 2.20181H4.10926C2.42697 2.20181 1.05833 3.59138 1.05833 5.29862C1.05714 17.4975 1.05569 33.0121 1.05469 43.0598C1.05469 44.7671 2.42343 46.1559 4.10563 46.1559H43.9099C45.5922 46.1559 46.9608 44.7671 46.9608 43.0598C46.9607 40.4994 46.9596 9.14234 46.9594 5.29862C46.9596 3.59147 45.5908 2.20181 43.9086 2.20181ZM4.10926 3.30834H43.9086C44.9915 3.30834 45.8725 4.20089 45.8725 5.29871V11.9123H2.14535V5.29871C2.14535 4.20089 3.02643 3.30834 4.10926 3.30834ZM43.91 45.0495H4.10572C3.02288 45.0495 2.1418 44.1569 2.1418 43.0598V13.0224H45.8739V43.0598C45.8739 44.1569 44.9928 45.0495 43.91 45.0495Z" fill="white"/>
<path d="M31.288 25.8993H27.4861C27.1952 25.8993 26.9398 25.7106 26.8499 25.4289L25.6794 21.7551C25.4401 21.0045 24.7848 20.5197 24.0098 20.5197H24.0091C23.2348 20.5197 22.5795 21.0045 22.3403 21.7544L21.1662 25.4297C21.0763 25.7106 20.8208 25.8994 20.5306 25.8994H16.728C15.9531 25.8994 15.2977 26.3842 15.0585 27.1341C14.8186 27.8839 15.0691 28.6677 15.6961 29.1309L18.7733 31.4065C19.0075 31.5802 19.1052 31.8863 19.0161 32.1673L17.842 35.8426C17.6021 36.5924 17.8526 37.3769 18.4789 37.8402C18.7925 38.0721 19.152 38.1881 19.5115 38.1881C19.8703 38.1881 20.2298 38.0721 20.5434 37.8402L23.6169 35.5667C23.854 35.3924 24.1704 35.3931 24.4032 35.566L27.4712 37.8373C28.0982 38.3012 28.9086 38.3019 29.5356 37.838C30.1626 37.3748 30.4131 36.5904 30.1733 35.8398L29.0006 32.1681C28.9107 31.8864 29.0084 31.5802 29.2426 31.4066L32.3205 29.131C32.9468 28.6678 33.1967 27.8834 32.9574 27.1334C32.7175 26.3833 32.0629 25.8993 31.288 25.8993ZM31.6815 28.2361L28.6043 30.5118C27.9872 30.9678 27.731 31.771 27.9659 32.5094C27.9667 32.5094 27.9667 32.5094 27.9667 32.5101L29.1401 36.1818C29.2788 36.6184 28.9894 36.8748 28.8973 36.9425C28.8046 37.0109 28.4748 37.2119 28.111 36.9425L25.0424 34.6712C24.4259 34.2145 23.595 34.2145 22.9786 34.6712L19.9043 36.9454C19.5385 37.2141 19.2107 37.0124 19.118 36.9454C19.0261 36.877 18.7359 36.6205 18.8753 36.1847L20.0501 32.5094C20.285 31.771 20.0289 30.9678 19.4117 30.5118L16.3345 28.2361C15.9708 27.9667 16.0571 27.5863 16.0918 27.4762C16.1271 27.3652 16.2771 27.0057 16.728 27.0057H20.5305C21.2934 27.0057 21.9637 26.5094 22.1994 25.7711L23.3734 22.0958C23.5129 21.6599 23.895 21.6261 24.009 21.6261H24.0097C24.123 21.6261 24.5058 21.6599 24.6453 22.0964L25.8158 25.7702C26.0515 26.5093 26.7224 27.0056 27.486 27.0056H31.2879C31.7387 27.0056 31.888 27.3651 31.9234 27.4753C31.9589 27.5857 32.0452 27.9667 31.6815 28.2361Z" fill="white"/>
<path d="M9.4732 8.16509H38.5435C38.8436 8.16509 39.087 7.91732 39.087 7.61187C39.087 7.30642 38.8436 7.05865 38.5435 7.05865H9.4732C9.17311 7.05865 8.92969 7.30642 8.92969 7.61187C8.92969 7.91732 9.17311 8.16509 9.4732 8.16509Z" fill="white"/>
</svg>
