<svg width="47" height="36" viewBox="0 0 47 36" fill="none" xmlns="http://www.w3.org/2000/svg">
<path d="M39.6908 8.06263C39.6908 11.9405 36.4306 15.1318 32.3491 15.1318C28.2676 15.1318 25.0075 11.9405 25.0075 8.06263C25.0075 4.18476 28.2676 0.993415 32.3491 0.993415C36.4306 0.993415 39.6908 4.18476 39.6908 8.06263Z" stroke="#FFF7FB" stroke-width="1.66334"/>
<path d="M23.3455 34.642C25.7233 35.1827 28.8029 35.0851 32.1672 35.0851C39.6968 35.0851 45.8007 35.5741 45.8007 28.301C45.8007 21.0279 39.6968 15.1318 32.1672 15.1318C28.8029 15.1318 25.3074 16.5075 22.9297 18.4585" stroke="#FFF7FB" stroke-width="1.66334"/>
<path d="M21.3939 8.06263C21.3939 11.9405 18.1337 15.1318 14.0522 15.1318C9.97075 15.1318 6.71058 11.9405 6.71058 8.06263C6.71058 4.18476 9.97075 0.993415 14.0522 0.993415C18.1337 0.993415 21.3939 4.18476 21.3939 8.06263Z" stroke="#FAFBFF" stroke-width="1.66334"/>
<path d="M27.5038 28.8544C27.5038 30.6373 27.1316 31.8419 26.5439 32.6781C25.9605 33.5083 25.0997 34.0676 23.9406 34.4391C22.7681 34.8148 21.3331 34.9843 19.6656 35.0539C18.4014 35.1067 17.0462 35.1013 15.6053 35.0957C15.1445 35.0938 14.6751 35.092 14.197 35.092C13.719 35.092 13.2495 35.0938 12.7888 35.0957C11.3479 35.1013 9.9926 35.1067 8.72841 35.0539C7.06094 34.9843 5.62595 34.8148 4.45346 34.4391C3.2943 34.0676 2.43355 33.5083 1.8501 32.6781C1.26244 31.8419 0.890266 30.6373 0.890266 28.8544C0.890266 21.7582 6.82432 15.9635 14.197 15.9635C21.5697 15.9635 27.5038 21.7582 27.5038 28.8544Z" stroke="#FAFBFF" stroke-width="1.66334"/>
</svg>
