<svg width="41" height="41" viewBox="0 0 41 41" fill="none" xmlns="http://www.w3.org/2000/svg">
<path d="M20.8419 2.76732C17.3054 2.76732 13.8483 3.81602 10.9078 5.7808C7.96727 7.74558 5.67542 10.5382 4.32205 13.8055C2.96869 17.0728 2.61458 20.6681 3.30452 24.1367C3.99446 27.6052 5.69746 30.7913 8.19815 33.292C10.6989 35.7927 13.8849 37.4957 17.3535 38.1856C20.8221 38.8756 24.4173 38.5215 27.6846 37.1681C30.952 35.8147 33.7446 33.5229 35.7094 30.5824C37.6742 27.6419 38.7229 24.1848 38.7229 20.6483C38.7206 15.9066 36.8361 11.3598 33.4832 8.00696C30.1304 4.65411 25.5835 2.76952 20.8419 2.76732Z" stroke="white" stroke-width="1.66334" stroke-linecap="round" stroke-linejoin="round"/>
<path d="M20.8448 15.417C21.9931 15.417 22.924 14.4861 22.924 13.3378C22.924 12.1895 21.9931 11.2587 20.8448 11.2587C19.6965 11.2587 18.7656 12.1895 18.7656 13.3378C18.7656 14.4861 19.6965 15.417 20.8448 15.417Z" stroke="white" stroke-width="1.66334" stroke-linecap="round" stroke-linejoin="round"/>
<path d="M20.8359 18.4359V30.0377" stroke="white" stroke-width="1.66334" stroke-linecap="round" stroke-linejoin="round"/>
</svg>
