<svg width="50" height="34" viewBox="0 0 50 34" fill="none" xmlns="http://www.w3.org/2000/svg">
<path d="M46.7592 14.4219C47.0556 15.2362 47.099 15.7778 46.896 16.2734C46.679 16.8031 46.1158 17.4411 44.7958 18.2637C42.1542 19.9102 36.984 22.0025 27.4703 25.4652C24.3649 26.5955 21.7045 27.5942 19.4201 28.4517C15.4042 29.9591 12.5501 31.0305 10.4822 31.6143C8.84813 32.0756 7.86019 32.1821 7.23992 32.0478C6.95598 31.9863 6.76131 31.8761 6.60794 31.7248C6.44676 31.5659 6.2949 31.3254 6.15904 30.9521C5.88344 30.1949 5.88058 29.6378 6.15231 29.0972C6.45011 28.5048 7.1345 27.8152 8.5272 26.9644C11.3097 25.2647 16.4867 23.1704 25.4479 19.9088C27.4299 19.1874 29.3292 18.4702 31.1258 17.7919C34.6992 16.4426 37.866 15.2469 40.4678 14.4768C42.4255 13.8974 43.9728 13.5885 45.079 13.613C45.627 13.6251 46.0104 13.7187 46.2683 13.856C46.5059 13.9824 46.6632 14.1582 46.7592 14.4219Z" stroke="#FFFEFE" stroke-width="1.5"/>
<path d="M42.935 3.91475C43.2314 4.72902 43.2748 5.27061 43.0718 5.76619C42.8547 6.29594 42.2916 6.93389 40.9716 7.75657C38.33 9.40298 33.1598 11.4954 23.6461 14.958C20.5406 16.0883 17.8803 17.087 15.5958 17.9445C11.5799 19.452 8.72583 20.5233 6.65793 21.1071C5.02391 21.5685 4.03597 21.675 3.4157 21.5406C3.13176 21.4791 2.93709 21.3689 2.78372 21.2177C2.62254 21.0588 2.47068 20.8182 2.33482 20.445C2.05922 19.6878 2.05636 19.1306 2.32809 18.59C2.62589 17.9976 3.31028 17.308 4.70299 16.4572C7.4855 14.7575 12.6625 12.6632 21.6237 9.40161C23.6057 8.68024 25.505 7.96307 27.3016 7.2847C30.875 5.93546 34.0418 4.73969 36.6436 3.96963C38.6012 3.3902 40.1486 3.08133 41.2548 3.10582C41.8028 3.11796 42.1861 3.21153 42.4441 3.3488C42.6816 3.47523 42.839 3.65101 42.935 3.91475Z" stroke="#FFFEFE" stroke-opacity="0.9" stroke-width="1.5"/>
</svg>
