<svg width="54" height="57" viewBox="0 0 54 57" fill="none" xmlns="http://www.w3.org/2000/svg">
<g clip-path="url(#clip0_262_98)">
<path d="M34.8219 17.1236C35.8088 17.1236 36.7736 16.8172 37.5942 16.2432C38.4148 15.6692 39.0544 14.8533 39.4321 13.8987C39.8098 12.9442 39.9086 11.8938 39.716 10.8805C39.5235 9.86715 39.0482 8.93633 38.3504 8.20575C37.6525 7.47517 36.7634 6.97764 35.7954 6.77607C34.8274 6.5745 33.8241 6.67795 32.9123 7.07334C32.0005 7.46873 31.2211 8.13829 30.6728 8.99737C30.1245 9.85644 29.8319 10.8664 29.8319 11.8996C29.8373 13.2833 30.3648 14.6087 31.2994 15.5872C32.2341 16.5656 33.5001 17.1178 34.8219 17.1236ZM34.8219 8.41701C35.4798 8.41701 36.123 8.62126 36.6701 9.00393C37.2172 9.38661 37.6436 9.93052 37.8954 10.5669C38.1471 11.2033 38.213 11.9035 38.0847 12.5791C37.9563 13.2546 37.6395 13.8752 37.1742 14.3622C36.709 14.8493 36.1162 15.181 35.4709 15.3153C34.8256 15.4497 34.1567 15.3808 33.5488 15.1172C32.9409 14.8536 32.4214 14.4072 32.0559 13.8345C31.6903 13.2618 31.4952 12.5884 31.4952 11.8996C31.4952 10.976 31.8457 10.0902 32.4696 9.43704C33.0934 8.78392 33.9396 8.41701 34.8219 8.41701ZM52.9939 43.6786L41.1218 22.6958C40.9045 22.3026 40.5922 21.9762 40.2163 21.7492C39.8405 21.5223 39.4142 21.4028 38.9803 21.4028C38.5463 21.4028 38.1201 21.5223 37.7442 21.7492C37.3683 21.9762 37.056 22.3026 36.8387 22.6958L30.6843 33.5572L21.1617 16.6229C20.9444 16.2298 20.6321 15.9033 20.2562 15.6764C19.8803 15.4495 19.454 15.33 19.0201 15.33C18.5862 15.33 18.1599 15.4495 17.784 15.6764C17.4081 15.9033 17.0959 16.2298 16.8786 16.6229L1.67975 43.6786C1.59928 43.8073 1.5547 43.957 1.55103 44.1108C1.54736 44.2646 1.58473 44.4165 1.65896 44.5493C1.73565 44.6799 1.8425 44.7882 1.96967 44.8643C2.09683 44.9404 2.24024 44.9817 2.38667 44.9846H52.287C52.4334 44.9817 52.5768 44.9404 52.704 44.8643C52.8312 44.7882 52.938 44.6799 53.0147 44.5493C53.0889 44.4165 53.1263 44.2646 53.1227 44.1108C53.119 43.957 53.0744 43.8073 52.9939 43.6786ZM18.3132 17.5154C18.3837 17.384 18.4864 17.2746 18.6106 17.1985C18.7348 17.1224 18.8762 17.0823 19.0201 17.0823C19.1641 17.0823 19.3054 17.1224 19.4296 17.1985C19.5539 17.2746 19.6565 17.384 19.727 17.5154L25.4032 27.5715H12.637L18.3132 17.5154ZM3.8421 43.2433L11.6598 29.3128H26.3804L34.1981 43.2433H3.8421ZM36.1318 43.2433L31.6407 35.2768L38.2733 23.5882C38.3438 23.4568 38.4465 23.3475 38.5707 23.2714C38.695 23.1953 38.8363 23.1552 38.9803 23.1552C39.1242 23.1552 39.2655 23.1953 39.3898 23.2714C39.514 23.3475 39.6167 23.4568 39.6872 23.5882L50.8316 43.2433H36.1318Z" fill="white"/>
</g>
<defs>
<clipPath id="clip0_262_98">
<rect width="53.227" height="55.722" fill="white" transform="translate(0.722656 0.581238)"/>
</clipPath>
</defs>
</svg>
