<svg width="112" height="108" viewBox="0 0 112 108" fill="none" xmlns="http://www.w3.org/2000/svg">
<g clip-path="url(#clip0_1009_103)">
<path d="M58.5781 78.2085L58.8093 78.6338L59.2365 77.8394C59.2365 77.8394 59.929 76.2003 59.9692 77.264C60.1977 78.2513 60.316 77.2078 60.316 77.2078C60.3543 77.0907 60.6071 74.6411 60.7177 77.3721C60.8286 80.1012 60.9756 77.4853 61.0591 77.5555C62.3368 78.6297 64.0418 81.7005 64.0418 81.7005H60.4764L60.609 81.9443H64.4586L60.3972 74.4734L58.5781 78.2085Z" fill="#353535"/>
<path d="M57.7078 77.6684L57.3738 77.0536L51.7775 66.7654L44.1367 82.4575H54.7425H60.3113L60.1192 82.1038L57.7078 77.6684ZM55.4044 81.944H54.993H44.9741L49.3395 73.8369C49.3395 73.8369 50.7962 70.3936 50.8778 72.6268C51.3588 74.6999 51.6081 72.5087 51.6081 72.5087C51.6882 72.2641 52.2178 67.1168 52.4521 72.8523C52.6868 78.5881 52.9926 73.0905 53.1689 73.2382C54.3864 74.2637 55.789 76.1515 56.9582 77.9073C57.0734 78.0817 57.1878 78.2546 57.2992 78.4257C58.534 80.3247 59.4333 81.944 59.4333 81.944H55.4044Z" fill="#353535"/>
<path d="M55.5781 71.1194L57.2812 73.9809H60.6869L62.3904 71.1194L60.6869 68.2578H57.2812L55.5781 71.1194ZM58.1043 71.3819H57.2093V71.1197H58.1043V71.3819ZM60.0656 69.1734L60.8783 70.7008H57.0902L57.9025 69.1734H60.0656Z" fill="#353535"/>
<path d="M59.8374 67.3152H58.1289V67.8002H59.8374V67.3152Z" fill="#353535"/>
<path d="M59.4903 65.1709L59.5267 65.094L58.3127 64.5606L58.2829 64.6236L52.7767 62.1323L52.5625 62.5779L58.0741 65.0719L58.0707 65.0782L58.3262 65.1904L58.2984 65.2575L59.2947 66.2245L58.6885 66.8123L58.9406 67.0565L59.7981 66.2245L59.0774 65.5257L67.648 69.4037L67.8618 68.9581L59.4903 65.1709Z" fill="#353535"/>
</g>
<path d="M36.2886 49.2812C36.2886 49.1308 36.2653 48.9965 36.2188 48.8784C36.1758 48.7566 36.0952 48.6474 35.9771 48.5507C35.8625 48.4505 35.6995 48.3538 35.4883 48.2607C35.2806 48.164 35.012 48.0637 34.6826 47.9599C34.3174 47.8453 33.9772 47.7164 33.6621 47.5732C33.347 47.43 33.0695 47.2634 32.8296 47.0737C32.5933 46.8839 32.4089 46.6655 32.2764 46.4184C32.1439 46.1677 32.0776 45.8777 32.0776 45.5483C32.0776 45.226 32.1457 44.9324 32.2817 44.6674C32.4214 44.4024 32.6183 44.1751 32.8726 43.9853C33.1268 43.7919 33.4258 43.6433 33.7695 43.5395C34.1169 43.4356 34.5 43.3837 34.9189 43.3837C35.499 43.3837 36.0003 43.4894 36.4229 43.7006C36.849 43.9119 37.1784 44.1983 37.4111 44.56C37.6439 44.9217 37.7603 45.3281 37.7603 45.7792H36.2886C36.2886 45.5357 36.2367 45.3209 36.1328 45.1347C36.0326 44.9485 35.8786 44.8017 35.6709 44.6943C35.4668 44.5869 35.209 44.5331 34.8975 44.5331C34.5967 44.5331 34.346 44.5779 34.1455 44.6674C33.9486 44.7569 33.8 44.8787 33.6997 45.0327C33.603 45.1866 33.5547 45.3585 33.5547 45.5483C33.5547 45.6915 33.5887 45.8204 33.6567 45.935C33.7248 46.046 33.8268 46.1516 33.9629 46.2519C34.099 46.3486 34.2673 46.4399 34.4678 46.5258C34.6719 46.6082 34.9082 46.6905 35.1768 46.7729C35.6064 46.9018 35.9824 47.045 36.3047 47.2026C36.6305 47.3601 36.9009 47.5392 37.1157 47.7397C37.3341 47.9402 37.4971 48.1658 37.6045 48.4164C37.7155 48.6671 37.771 48.9518 37.771 49.2704C37.771 49.607 37.7048 49.9078 37.5723 50.1728C37.4398 50.4378 37.25 50.6634 37.0029 50.8495C36.7559 51.0357 36.4587 51.1772 36.1113 51.2739C35.7676 51.3705 35.3826 51.4189 34.9565 51.4189C34.577 51.4189 34.201 51.3688 33.8286 51.2685C33.4598 51.1647 33.125 51.0107 32.8242 50.8066C32.5234 50.5989 32.2835 50.3375 32.1045 50.0224C31.9255 49.7037 31.8359 49.3313 31.8359 48.9052H33.3184C33.3184 49.1523 33.3577 49.3635 33.4365 49.539C33.5189 49.7109 33.6335 49.8523 33.7803 49.9633C33.9307 50.0707 34.1061 50.1495 34.3066 50.1996C34.5072 50.2498 34.7238 50.2748 34.9565 50.2748C35.2573 50.2748 35.5044 50.2337 35.6978 50.1513C35.8947 50.0654 36.0415 49.9472 36.1382 49.7968C36.2384 49.6464 36.2886 49.4745 36.2886 49.2812ZM40.3867 43.4911V51.3115H38.9097V43.4911H40.3867ZM45.0811 43.4911L41.9443 47.3046L40.1504 49.2221L39.8872 47.788L41.1333 46.1713L43.271 43.4911H45.0811ZM43.4375 51.3115L41.0044 47.6484L42.0625 46.6923L45.1938 51.3115H43.4375ZM47.4551 43.4911V51.3115H45.978V43.4911H47.4551ZM51.7681 47.4013V48.5239H48.8301V47.4013H51.7681ZM56.0972 48.4594H54.083V47.2993H56.0972C56.4266 47.2993 56.6934 47.2455 56.8975 47.1381C57.1051 47.0271 57.2573 46.8767 57.354 46.687C57.4507 46.4936 57.499 46.2734 57.499 46.0263C57.499 45.7864 57.4507 45.5626 57.354 45.3549C57.2573 45.1472 57.1051 44.9789 56.8975 44.85C56.6934 44.7211 56.4266 44.6567 56.0972 44.6567H54.5664V51.3115H53.0894V43.4911H56.0972C56.7059 43.4911 57.2251 43.6004 57.6548 43.8188C58.0881 44.0336 58.4175 44.3326 58.6431 44.7158C58.8722 45.0953 58.9868 45.5286 58.9868 46.0156C58.9868 46.5204 58.8722 46.9555 58.6431 47.3207C58.4175 47.686 58.0881 47.9671 57.6548 48.164C57.2251 48.3609 56.7059 48.4594 56.0972 48.4594ZM62.4082 44.6782L60.1792 51.3115H58.6162L61.5381 43.4911H62.5371L62.4082 44.6782ZM64.272 51.3115L62.0322 44.6782L61.8979 43.4911H62.9023L65.8403 51.3115H64.272ZM64.1699 48.4057V49.5712H59.9751V48.4057H64.1699ZM66.646 43.4911H69.4873C70.0817 43.4911 70.592 43.5807 71.0181 43.7597C71.4442 43.9387 71.7718 44.2037 72.001 44.5546C72.2301 44.9055 72.3447 45.337 72.3447 45.8491C72.3447 46.2537 72.2731 46.6046 72.1299 46.9018C71.9867 47.199 71.7843 47.4479 71.5229 47.6484C71.2651 47.8489 70.9608 48.0064 70.6099 48.121L70.1479 48.3574H67.6396L67.6289 47.1918H69.5034C69.8078 47.1918 70.0602 47.1381 70.2607 47.0307C70.4613 46.9233 70.6117 46.7747 70.7119 46.5849C70.8158 46.3951 70.8677 46.1785 70.8677 45.935C70.8677 45.6736 70.8175 45.448 70.7173 45.2582C70.617 45.0649 70.4648 44.9163 70.2607 44.8124C70.0566 44.7086 69.7988 44.6567 69.4873 44.6567H68.123V51.3115H66.646V43.4911ZM71.061 51.3115L69.251 47.8095L70.814 47.8041L72.6455 51.2363V51.3115H71.061ZM75.1162 43.4911V51.3115H73.6392V43.4911H75.1162ZM79.8105 43.4911L76.6738 47.3046L74.8799 49.2221L74.6167 47.788L75.8628 46.1713L78.0005 43.4911H79.8105ZM78.167 51.3115L75.7339 47.6484L76.792 46.6923L79.9233 51.3115H78.167Z" fill="#353535"/>
<line x1="24.2734" y1="54.0901" x2="87.7241" y2="54.0901" stroke="#333333"/>
<path d="M55.7244 4.13116L20.4141 54L55.7244 103.869L91.3106 54L55.7244 4.13116Z" stroke="#353535" stroke-width="2"/>
<defs>
<clipPath id="clip0_1009_103">
<rect width="23.7241" height="23.0164" fill="white" transform="translate(44.1367 60.7869)"/>
</clipPath>
</defs>
</svg>
