<svg width="203" height="183" viewBox="0 0 203 183" fill="none" xmlns="http://www.w3.org/2000/svg">
<path d="M106.176 132.52L106.595 133.241L107.369 131.895C107.369 131.895 108.624 129.117 108.697 130.92C109.111 132.592 109.326 130.824 109.326 130.824C109.395 130.626 109.853 126.475 110.054 131.103C110.255 135.727 110.521 131.295 110.672 131.413C112.988 133.234 116.079 138.437 116.079 138.437H109.616L109.857 138.85H116.834L109.473 126.191L106.176 132.52Z" fill="#353535"/>
<path d="M104.598 131.605L103.992 130.563L93.8489 113.13L80 139.72H99.2229H109.316L108.968 139.12L104.598 131.605ZM100.423 138.85H99.677H81.5178L89.43 125.112C89.43 125.112 92.0704 119.278 92.2182 123.062C93.09 126.575 93.542 122.862 93.542 122.862C93.687 122.448 94.647 113.726 95.0717 123.444C95.497 133.163 96.0513 123.848 96.3709 124.098C98.5775 125.836 101.12 129.035 103.239 132.01C103.448 132.305 103.655 132.598 103.857 132.888C106.095 136.106 107.725 138.85 107.725 138.85H100.423Z" fill="#353535"/>
<path d="M100.734 120.508L103.821 125.357H109.994L113.082 120.508L109.994 115.659H103.821L100.734 120.508ZM105.313 120.953H103.691V120.508H105.313V120.953ZM108.868 117.211L110.341 119.799H103.475L104.947 117.211H108.868Z" fill="#353535"/>
<path d="M108.456 114.062H105.359V114.884H108.456V114.062Z" fill="#353535"/>
<path d="M107.826 110.428L107.892 110.298L105.692 109.394L105.638 109.501L95.6577 105.28L95.2695 106.035L105.259 110.261L105.253 110.271L105.716 110.461L105.666 110.575L107.472 112.214L106.373 113.21L106.83 113.623L108.384 112.214L107.078 111.03L122.612 117.601L123 116.846L107.826 110.428Z" fill="#353535"/>
<path d="M65.6719 84.2793C65.6719 84.0254 65.6328 83.7975 65.5547 83.5957C65.4831 83.3874 65.3464 83.1986 65.1445 83.0293C64.9427 82.8535 64.6595 82.681 64.2949 82.5117C63.9303 82.3424 63.4583 82.1667 62.8789 81.9844C62.2344 81.776 61.6224 81.5417 61.043 81.2812C60.4701 81.0208 59.9622 80.7181 59.5195 80.373C59.0833 80.0215 58.7383 79.6146 58.4844 79.1523C58.237 78.6901 58.1133 78.153 58.1133 77.541C58.1133 76.9486 58.2435 76.4115 58.5039 75.9297C58.7643 75.4414 59.1289 75.0247 59.5977 74.6797C60.0664 74.3281 60.6198 74.0579 61.2578 73.8691C61.9023 73.6803 62.6087 73.5859 63.377 73.5859C64.4251 73.5859 65.3398 73.7747 66.1211 74.1523C66.9023 74.5299 67.5078 75.0475 67.9375 75.7051C68.3737 76.3626 68.5918 77.1146 68.5918 77.9609H65.6816C65.6816 77.5443 65.5938 77.1797 65.418 76.8672C65.2487 76.5482 64.9883 76.2975 64.6367 76.1152C64.2917 75.9329 63.8555 75.8418 63.3281 75.8418C62.8203 75.8418 62.3971 75.9199 62.0586 76.0762C61.7201 76.2259 61.4661 76.431 61.2969 76.6914C61.1276 76.9453 61.043 77.2318 61.043 77.5508C61.043 77.7917 61.1016 78.0098 61.2188 78.2051C61.3424 78.4004 61.5247 78.5827 61.7656 78.752C62.0065 78.9212 62.3027 79.0807 62.6543 79.2305C63.0059 79.3802 63.4128 79.5267 63.875 79.6699C64.6497 79.9043 65.3301 80.168 65.916 80.4609C66.5085 80.7539 67.0033 81.0827 67.4004 81.4473C67.7975 81.8118 68.097 82.2253 68.2988 82.6875C68.5007 83.1497 68.6016 83.6738 68.6016 84.2598C68.6016 84.8783 68.4811 85.4316 68.2402 85.9199C67.9993 86.4082 67.651 86.8216 67.1953 87.1602C66.7396 87.4987 66.196 87.7559 65.5645 87.9316C64.9329 88.1074 64.2266 88.1953 63.4453 88.1953C62.7422 88.1953 62.0488 88.1042 61.3652 87.9219C60.6816 87.7331 60.0599 87.4499 59.5 87.0723C58.9466 86.6947 58.5039 86.2129 58.1719 85.627C57.8398 85.041 57.6738 84.3477 57.6738 83.5469H60.6133C60.6133 83.9896 60.6816 84.3639 60.8184 84.6699C60.9551 84.9759 61.1471 85.2233 61.3945 85.4121C61.6484 85.6009 61.9479 85.7376 62.293 85.8223C62.6445 85.9069 63.0286 85.9492 63.4453 85.9492C63.9531 85.9492 64.3698 85.8776 64.6953 85.7344C65.0273 85.5911 65.2715 85.3926 65.4277 85.1387C65.5905 84.8848 65.6719 84.5983 65.6719 84.2793ZM73.5234 73.7812V88H70.5938V73.7812H73.5234ZM82.0391 73.7812L76.4043 80.8027L73.1523 84.2988L72.625 81.5254L74.8223 78.5176L78.4453 73.7812H82.0391ZM78.709 88L74.5195 81.4277L76.6875 79.6113L82.1758 88H78.709ZM86.4238 73.7812V88H83.5039V73.7812H86.4238ZM94.5391 80.793V83H89.0215V80.793H94.5391ZM102.596 82.9316H98.9727V80.6465H102.596C103.156 80.6465 103.611 80.5553 103.963 80.373C104.314 80.1842 104.572 79.9238 104.734 79.5918C104.897 79.2598 104.979 78.8854 104.979 78.4688C104.979 78.0456 104.897 77.6517 104.734 77.2871C104.572 76.9225 104.314 76.6296 103.963 76.4082C103.611 76.1868 103.156 76.0762 102.596 76.0762H99.9883V88H97.0586V73.7812H102.596C103.709 73.7812 104.663 73.9831 105.457 74.3867C106.258 74.7839 106.87 75.334 107.293 76.0371C107.716 76.7402 107.928 77.5443 107.928 78.4492C107.928 79.3672 107.716 80.1615 107.293 80.832C106.87 81.5026 106.258 82.0202 105.457 82.3848C104.663 82.7493 103.709 82.9316 102.596 82.9316ZM114.109 76.2129L110.242 88H107.127L112.41 73.7812H114.393L114.109 76.2129ZM117.322 88L113.445 76.2129L113.133 73.7812H115.135L120.447 88H117.322ZM117.146 82.707V85.002H109.637V82.707H117.146ZM121.766 73.7812H127.068C128.156 73.7812 129.09 73.944 129.871 74.2695C130.659 74.5951 131.264 75.0768 131.688 75.7148C132.111 76.3529 132.322 77.1374 132.322 78.0684C132.322 78.8301 132.192 79.4844 131.932 80.0312C131.678 80.5716 131.316 81.0241 130.848 81.3887C130.385 81.7467 129.842 82.0332 129.217 82.248L128.289 82.7363H123.68L123.66 80.4512H127.088C127.602 80.4512 128.029 80.36 128.367 80.1777C128.706 79.9954 128.96 79.7415 129.129 79.416C129.305 79.0905 129.393 78.7129 129.393 78.2832C129.393 77.8275 129.308 77.4336 129.139 77.1016C128.969 76.7695 128.712 76.5156 128.367 76.3398C128.022 76.1641 127.589 76.0762 127.068 76.0762H124.695V88H121.766V73.7812ZM129.715 88L126.473 81.6621L129.568 81.6426L132.85 87.8633V88H129.715ZM137.508 73.7812V88H134.578V73.7812H137.508ZM146.023 73.7812L140.389 80.8027L137.137 84.2988L136.609 81.5254L138.807 78.5176L142.43 73.7812H146.023ZM142.693 88L138.504 81.4277L140.672 79.6113L146.16 88H142.693Z" fill="#353535"/>
<line x1="43.9961" y1="91.5" x2="159" y2="91.5" stroke="#333333" stroke-width="2"/>
<path d="M101 7L37 91.5L101 176L165.5 91.5L101 7Z" stroke="#353535" stroke-width="3"/>
<path d="M106.176 132.52L106.595 133.241L107.369 131.895C107.369 131.895 108.624 129.117 108.697 130.92C109.111 132.592 109.326 130.824 109.326 130.824C109.395 130.626 109.853 126.475 110.054 131.103C110.255 135.727 110.521 131.295 110.672 131.413C112.988 133.234 116.079 138.437 116.079 138.437H109.616L109.857 138.85H116.834L109.473 126.191L106.176 132.52Z" fill="#353535"/>
<path d="M104.598 131.605L103.992 130.563L93.8489 113.13L80 139.72H99.2229H109.316L108.968 139.12L104.598 131.605ZM100.423 138.85H99.677H81.5178L89.43 125.112C89.43 125.112 92.0704 119.278 92.2182 123.062C93.09 126.575 93.542 122.862 93.542 122.862C93.687 122.448 94.647 113.726 95.0717 123.444C95.497 133.163 96.0513 123.848 96.3709 124.098C98.5775 125.836 101.12 129.035 103.239 132.01C103.448 132.305 103.655 132.598 103.857 132.888C106.095 136.106 107.725 138.85 107.725 138.85H100.423Z" fill="#353535"/>
<path d="M100.734 120.508L103.821 125.357H109.994L113.082 120.508L109.994 115.659H103.821L100.734 120.508ZM105.313 120.953H103.691V120.508H105.313V120.953ZM108.868 117.211L110.341 119.799H103.475L104.947 117.211H108.868Z" fill="#353535"/>
<path d="M107.826 110.428L107.892 110.298L105.692 109.394L105.638 109.501L95.6577 105.28L95.2695 106.035L105.259 110.261L105.253 110.271L105.716 110.461L105.666 110.575L107.472 112.214L106.373 113.21L106.83 113.623L108.384 112.214L107.078 111.03L122.612 117.601L123 116.846L107.826 110.428Z" fill="#353535"/>
<path d="M65.6719 84.2793C65.6719 84.0254 65.6328 83.7975 65.5547 83.5957C65.4831 83.3874 65.3464 83.1986 65.1445 83.0293C64.9427 82.8535 64.6595 82.681 64.2949 82.5117C63.9303 82.3424 63.4583 82.1667 62.8789 81.9844C62.2344 81.776 61.6224 81.5417 61.043 81.2812C60.4701 81.0208 59.9622 80.7181 59.5195 80.373C59.0833 80.0215 58.7383 79.6146 58.4844 79.1523C58.237 78.6901 58.1133 78.153 58.1133 77.541C58.1133 76.9486 58.2435 76.4115 58.5039 75.9297C58.7643 75.4414 59.1289 75.0247 59.5977 74.6797C60.0664 74.3281 60.6198 74.0579 61.2578 73.8691C61.9023 73.6803 62.6087 73.5859 63.377 73.5859C64.4251 73.5859 65.3398 73.7747 66.1211 74.1523C66.9023 74.5299 67.5078 75.0475 67.9375 75.7051C68.3737 76.3626 68.5918 77.1146 68.5918 77.9609H65.6816C65.6816 77.5443 65.5938 77.1797 65.418 76.8672C65.2487 76.5482 64.9883 76.2975 64.6367 76.1152C64.2917 75.9329 63.8555 75.8418 63.3281 75.8418C62.8203 75.8418 62.3971 75.9199 62.0586 76.0762C61.7201 76.2259 61.4661 76.431 61.2969 76.6914C61.1276 76.9453 61.043 77.2318 61.043 77.5508C61.043 77.7917 61.1016 78.0098 61.2188 78.2051C61.3424 78.4004 61.5247 78.5827 61.7656 78.752C62.0065 78.9212 62.3027 79.0807 62.6543 79.2305C63.0059 79.3802 63.4128 79.5267 63.875 79.6699C64.6497 79.9043 65.3301 80.168 65.916 80.4609C66.5085 80.7539 67.0033 81.0827 67.4004 81.4473C67.7975 81.8118 68.097 82.2253 68.2988 82.6875C68.5007 83.1497 68.6016 83.6738 68.6016 84.2598C68.6016 84.8783 68.4811 85.4316 68.2402 85.9199C67.9993 86.4082 67.651 86.8216 67.1953 87.1602C66.7396 87.4987 66.196 87.7559 65.5645 87.9316C64.9329 88.1074 64.2266 88.1953 63.4453 88.1953C62.7422 88.1953 62.0488 88.1042 61.3652 87.9219C60.6816 87.7331 60.0599 87.4499 59.5 87.0723C58.9466 86.6947 58.5039 86.2129 58.1719 85.627C57.8398 85.041 57.6738 84.3477 57.6738 83.5469H60.6133C60.6133 83.9896 60.6816 84.3639 60.8184 84.6699C60.9551 84.9759 61.1471 85.2233 61.3945 85.4121C61.6484 85.6009 61.9479 85.7376 62.293 85.8223C62.6445 85.9069 63.0286 85.9492 63.4453 85.9492C63.9531 85.9492 64.3698 85.8776 64.6953 85.7344C65.0273 85.5911 65.2715 85.3926 65.4277 85.1387C65.5905 84.8848 65.6719 84.5983 65.6719 84.2793ZM73.5234 73.7812V88H70.5938V73.7812H73.5234ZM82.0391 73.7812L76.4043 80.8027L73.1523 84.2988L72.625 81.5254L74.8223 78.5176L78.4453 73.7812H82.0391ZM78.709 88L74.5195 81.4277L76.6875 79.6113L82.1758 88H78.709ZM86.4238 73.7812V88H83.5039V73.7812H86.4238ZM94.5391 80.793V83H89.0215V80.793H94.5391ZM102.596 82.9316H98.9727V80.6465H102.596C103.156 80.6465 103.611 80.5553 103.963 80.373C104.314 80.1842 104.572 79.9238 104.734 79.5918C104.897 79.2598 104.979 78.8854 104.979 78.4688C104.979 78.0456 104.897 77.6517 104.734 77.2871C104.572 76.9225 104.314 76.6296 103.963 76.4082C103.611 76.1868 103.156 76.0762 102.596 76.0762H99.9883V88H97.0586V73.7812H102.596C103.709 73.7812 104.663 73.9831 105.457 74.3867C106.258 74.7839 106.87 75.334 107.293 76.0371C107.716 76.7402 107.928 77.5443 107.928 78.4492C107.928 79.3672 107.716 80.1615 107.293 80.832C106.87 81.5026 106.258 82.0202 105.457 82.3848C104.663 82.7493 103.709 82.9316 102.596 82.9316ZM114.109 76.2129L110.242 88H107.127L112.41 73.7812H114.393L114.109 76.2129ZM117.322 88L113.445 76.2129L113.133 73.7812H115.135L120.447 88H117.322ZM117.146 82.707V85.002H109.637V82.707H117.146ZM121.766 73.7812H127.068C128.156 73.7812 129.09 73.944 129.871 74.2695C130.659 74.5951 131.264 75.0768 131.688 75.7148C132.111 76.3529 132.322 77.1374 132.322 78.0684C132.322 78.8301 132.192 79.4844 131.932 80.0312C131.678 80.5716 131.316 81.0241 130.848 81.3887C130.385 81.7467 129.842 82.0332 129.217 82.248L128.289 82.7363H123.68L123.66 80.4512H127.088C127.602 80.4512 128.029 80.36 128.367 80.1777C128.706 79.9954 128.96 79.7415 129.129 79.416C129.305 79.0905 129.393 78.7129 129.393 78.2832C129.393 77.8275 129.308 77.4336 129.139 77.1016C128.969 76.7695 128.712 76.5156 128.367 76.3398C128.022 76.1641 127.589 76.0762 127.068 76.0762H124.695V88H121.766V73.7812ZM129.715 88L126.473 81.6621L129.568 81.6426L132.85 87.8633V88H129.715ZM137.508 73.7812V88H134.578V73.7812H137.508ZM146.023 73.7812L140.389 80.8027L137.137 84.2988L136.609 81.5254L138.807 78.5176L142.43 73.7812H146.023ZM142.693 88L138.504 81.4277L140.672 79.6113L146.16 88H142.693Z" fill="#353535"/>
<line x1="43.9961" y1="91.5" x2="159" y2="91.5" stroke="#333333" stroke-width="2"/>
<path d="M101 7L37 91.5L101 176L165.5 91.5L101 7Z" stroke="#353535" stroke-width="3"/>
</svg>
