<svg width="404" height="345" viewBox="0 0 404 345" fill="none" xmlns="http://www.w3.org/2000/svg">
<g filter="url(#filter0_bd_578_2)">
<rect x="154.578" y="6" width="270" height="144" rx="4" transform="rotate(24 154.578 6)" fill="url(#paint0_linear_578_2)" shape-rendering="crispEdges"/>
<rect x="154.578" y="6" width="270" height="144" rx="4" transform="rotate(24 154.578 6)" fill="url(#paint1_linear_578_2)" fill-opacity="0.2" shape-rendering="crispEdges"/>
</g>
<path d="M122.167 107.83L118.729 115.553L117.401 114.962L120.839 107.239L122.167 107.83ZM124.757 108.984L124.281 110.054L117.822 107.179L118.298 106.108L124.757 108.984ZM125.188 118.6C124.651 118.36 124.203 118.053 123.846 117.677C123.496 117.299 123.237 116.873 123.072 116.4C122.911 115.929 122.849 115.429 122.886 114.898C122.922 114.367 123.062 113.83 123.303 113.288L123.436 112.988C123.716 112.36 124.058 111.842 124.462 111.435C124.867 111.022 125.306 110.716 125.777 110.515C126.249 110.315 126.726 110.216 127.209 110.22C127.691 110.224 128.149 110.323 128.582 110.516C129.134 110.761 129.568 111.068 129.883 111.437C130.202 111.807 130.414 112.221 130.519 112.678C130.625 113.13 130.638 113.614 130.556 114.131C130.476 114.643 130.316 115.17 130.074 115.712L129.81 116.305L124.044 113.737L124.523 112.659L128.97 114.639L129.014 114.539C129.148 114.188 129.225 113.823 129.245 113.445C129.27 113.068 129.198 112.717 129.03 112.391C128.862 112.065 128.551 111.802 128.099 111.6C127.799 111.467 127.495 111.408 127.186 111.425C126.878 111.436 126.579 111.525 126.288 111.692C125.997 111.859 125.722 112.099 125.464 112.411C125.205 112.723 124.972 113.113 124.764 113.579L124.631 113.879C124.467 114.245 124.364 114.612 124.32 114.98C124.282 115.346 124.307 115.693 124.394 116.023C124.486 116.354 124.642 116.652 124.861 116.915C125.085 117.18 125.378 117.393 125.739 117.554C126.206 117.761 126.643 117.842 127.051 117.796C127.46 117.749 127.856 117.621 128.241 117.41L128.757 118.401C128.478 118.579 128.16 118.725 127.801 118.839C127.442 118.953 127.043 118.998 126.604 118.973C126.169 118.951 125.697 118.826 125.188 118.6ZM138.396 115.056L137.91 116.148L134.178 114.486L134.664 113.394L138.396 115.056ZM139.56 115.574L136.122 123.296L134.801 122.709L138.239 114.986L139.56 115.574ZM134.343 113.251L135.67 113.842L133.811 117.479C133.522 118.04 133.24 118.525 132.967 118.933C132.701 119.339 132.434 119.671 132.166 119.927C131.902 120.186 131.631 120.373 131.351 120.488C131.079 120.601 130.791 120.646 130.487 120.625C130.185 120.599 129.862 120.51 129.52 120.357L129.106 120.173L129.624 119.009L129.919 119.115C130.13 119.192 130.325 119.222 130.503 119.204C130.687 119.189 130.864 119.125 131.033 119.013C131.205 118.896 131.378 118.725 131.552 118.5C131.731 118.277 131.915 118 132.103 117.667C132.295 117.337 132.504 116.945 132.729 116.492L134.343 113.251ZM141.389 125.813C140.852 125.573 140.404 125.266 140.047 124.89C139.697 124.512 139.439 124.086 139.273 123.613C139.112 123.143 139.05 122.642 139.087 122.111C139.124 121.58 139.263 121.043 139.504 120.501L139.638 120.201C139.917 119.573 140.259 119.055 140.663 118.648C141.069 118.236 141.507 117.929 141.979 117.729C142.45 117.528 142.927 117.43 143.41 117.434C143.893 117.438 144.35 117.536 144.783 117.729C145.335 117.975 145.769 118.282 146.084 118.65C146.403 119.02 146.615 119.434 146.72 119.891C146.826 120.343 146.839 120.828 146.757 121.344C146.677 121.856 146.517 122.383 146.275 122.926L146.012 123.518L140.245 120.95L140.725 119.873L145.171 121.852L145.215 121.752C145.349 121.401 145.426 121.037 145.446 120.658C145.471 120.281 145.4 119.93 145.231 119.604C145.063 119.278 144.752 119.015 144.3 118.814C144.001 118.68 143.696 118.622 143.387 118.638C143.079 118.649 142.78 118.738 142.489 118.905C142.198 119.072 141.924 119.312 141.665 119.624C141.406 119.937 141.173 120.326 140.965 120.792L140.832 121.092C140.669 121.458 140.565 121.826 140.521 122.194C140.484 122.559 140.508 122.906 140.595 123.236C140.687 123.568 140.843 123.865 141.062 124.128C141.286 124.393 141.579 124.606 141.941 124.767C142.407 124.975 142.844 125.055 143.252 125.009C143.661 124.963 144.057 124.834 144.442 124.623L144.958 125.615C144.68 125.793 144.361 125.939 144.002 126.053C143.644 126.167 143.245 126.211 142.805 126.187C142.37 126.164 141.899 126.04 141.389 125.813ZM156.537 127.922L156.47 128.072C156.228 128.614 155.946 129.087 155.624 129.491C155.304 129.89 154.951 130.203 154.564 130.43C154.183 130.659 153.777 130.79 153.347 130.82C152.92 130.847 152.477 130.758 152.02 130.555C151.645 130.387 151.336 130.19 151.095 129.963C150.856 129.731 150.68 129.473 150.567 129.189C150.459 128.907 150.406 128.604 150.408 128.28C150.416 127.953 150.476 127.609 150.585 127.248L152.111 123.822C152.316 123.474 152.541 123.181 152.785 122.942C153.033 122.704 153.3 122.527 153.586 122.409C153.877 122.294 154.187 122.243 154.517 122.259C154.846 122.275 155.199 122.366 155.575 122.533C155.946 122.699 156.249 122.914 156.485 123.178C156.727 123.44 156.907 123.742 157.022 124.084C157.142 124.429 157.2 124.805 157.195 125.213C157.197 125.619 157.142 126.05 157.029 126.508C156.917 126.965 156.753 127.436 156.537 127.922ZM155.149 127.484L155.216 127.334C155.364 127.001 155.482 126.674 155.567 126.353C155.66 126.029 155.715 125.72 155.732 125.426C155.756 125.128 155.737 124.852 155.674 124.596C155.611 124.34 155.499 124.113 155.336 123.915C155.178 123.719 154.966 123.562 154.699 123.443C154.414 123.316 154.16 123.246 153.938 123.233C153.72 123.222 153.533 123.252 153.375 123.324C153.22 123.392 153.09 123.479 152.985 123.587L150.992 128.062C151.003 128.192 151.042 128.329 151.109 128.473C151.178 128.612 151.292 128.754 151.45 128.898C151.61 129.038 151.83 129.17 152.111 129.295C152.444 129.443 152.757 129.503 153.049 129.473C153.349 129.441 153.626 129.337 153.882 129.16C154.142 128.985 154.376 128.753 154.585 128.464C154.798 128.177 154.986 127.85 155.149 127.484ZM147.299 123.988L147.365 123.838C147.581 123.353 147.822 122.916 148.086 122.526C148.351 122.137 148.635 121.807 148.937 121.537C149.242 121.262 149.561 121.053 149.892 120.91C150.229 120.769 150.573 120.7 150.925 120.703C151.284 120.703 151.649 120.786 152.02 120.951C152.387 121.114 152.681 121.311 152.904 121.541C153.131 121.773 153.294 122.034 153.393 122.323C153.493 122.613 153.535 122.928 153.52 123.269C153.505 123.61 153.439 123.974 153.324 124.362L151.859 127.652C151.655 127.995 151.432 128.286 151.188 128.525C150.945 128.764 150.681 128.946 150.398 129.071C150.116 129.191 149.811 129.243 149.481 129.228C149.157 129.214 148.809 129.125 148.438 128.96C147.981 128.756 147.619 128.487 147.352 128.151C147.088 127.811 146.91 127.421 146.821 126.982C146.736 126.546 146.732 126.074 146.81 125.567C146.894 125.057 147.057 124.531 147.299 123.988ZM148.693 124.429L148.626 124.579C148.463 124.946 148.341 125.302 148.261 125.648C148.186 125.997 148.163 126.323 148.193 126.627C148.228 126.933 148.329 127.206 148.496 127.446C148.665 127.681 148.916 127.873 149.249 128.021C149.534 128.148 149.786 128.217 150.003 128.228C150.221 128.24 150.409 128.213 150.57 128.147C150.73 128.082 150.866 128 150.978 127.901L152.913 123.555C152.923 123.405 152.899 123.249 152.84 123.086C152.788 122.921 152.686 122.761 152.532 122.607C152.378 122.453 152.156 122.311 151.866 122.182C151.533 122.034 151.214 121.988 150.908 122.046C150.603 122.104 150.317 122.242 150.049 122.459C149.786 122.678 149.539 122.959 149.307 123.3C149.082 123.639 148.877 124.016 148.693 124.429ZM148.253 132.255L154.456 118.324L155.783 118.915L149.581 132.846L148.253 132.255ZM157.936 128.485L158.009 128.321C158.257 127.764 158.568 127.284 158.942 126.88C159.317 126.472 159.736 126.159 160.197 125.943C160.66 125.721 161.152 125.61 161.672 125.607C162.194 125.6 162.724 125.716 163.261 125.956C163.804 126.197 164.247 126.514 164.591 126.907C164.942 127.297 165.19 127.738 165.336 128.23C165.488 128.72 165.538 129.241 165.486 129.794C165.436 130.342 165.287 130.894 165.039 131.451L164.966 131.615C164.718 132.172 164.408 132.652 164.034 133.056C163.66 133.459 163.24 133.771 162.771 133.99C162.31 134.207 161.818 134.318 161.297 134.325C160.781 134.33 160.253 134.211 159.71 133.97C159.168 133.728 158.724 133.414 158.377 133.026C158.033 132.633 157.785 132.192 157.633 131.702C157.487 131.21 157.439 130.69 157.489 130.142C157.539 129.594 157.688 129.042 157.936 128.485ZM159.33 128.909L159.257 129.073C159.085 129.458 158.968 129.842 158.906 130.225C158.846 130.603 158.848 130.963 158.912 131.306C158.981 131.65 159.12 131.96 159.328 132.235C159.539 132.505 159.827 132.722 160.193 132.885C160.555 133.046 160.904 133.113 161.241 133.086C161.585 133.057 161.905 132.952 162.203 132.771C162.5 132.589 162.769 132.35 163.01 132.052C163.258 131.752 163.467 131.409 163.639 131.024L163.712 130.86C163.881 130.479 163.994 130.099 164.049 129.719C164.111 129.336 164.108 128.972 164.039 128.628C163.976 128.281 163.841 127.97 163.633 127.695C163.43 127.422 163.145 127.204 162.778 127.041C162.417 126.88 162.064 126.814 161.72 126.843C161.381 126.875 161.06 126.982 160.755 127.166C160.458 127.347 160.188 127.589 159.945 127.891C159.704 128.189 159.499 128.528 159.33 128.909ZM172.128 134.085L171.651 135.156L167.569 133.338L168.045 132.267L172.128 134.085ZM169.814 129.044L166.376 136.766L165.055 136.179L168.493 128.456L169.814 129.044ZM174.688 131.214L171.25 138.937L169.923 138.346L173.361 130.623L174.688 131.214ZM115.514 131.55C115.232 132.183 114.846 132.655 114.353 132.966C113.868 133.275 113.325 133.432 112.724 133.438C112.127 133.446 111.517 133.311 110.894 133.034C110.271 132.756 109.76 132.392 109.362 131.941C108.964 131.49 108.718 130.981 108.622 130.414C108.529 129.843 108.623 129.24 108.905 128.608C109.09 128.194 109.336 127.85 109.646 127.578C109.962 127.302 110.323 127.101 110.728 126.973C111.137 126.848 111.572 126.805 112.033 126.845C112.501 126.882 112.978 127.009 113.463 127.225C114.101 127.509 114.614 127.886 115.004 128.355C115.395 128.82 115.639 129.331 115.733 129.886C115.833 130.443 115.76 130.998 115.514 131.55ZM114.199 130.931C114.371 130.545 114.439 130.168 114.404 129.799C114.371 129.425 114.242 129.088 114.016 128.788C113.79 128.488 113.48 128.25 113.085 128.074C112.681 127.894 112.294 127.822 111.925 127.857C111.56 127.894 111.231 128.027 110.935 128.254C110.642 128.477 110.41 128.782 110.238 129.167C110.06 129.567 109.986 129.944 110.016 130.3C110.053 130.652 110.185 130.97 110.412 131.254C110.646 131.535 110.968 131.767 111.377 131.949C111.786 132.131 112.171 132.214 112.532 132.198C112.895 132.177 113.217 132.061 113.499 131.85C113.788 131.637 114.021 131.33 114.199 130.931ZM117.442 126.567C117.217 127.072 116.882 127.467 116.435 127.753C115.989 128.038 115.483 128.195 114.917 128.223C114.352 128.251 113.777 128.134 113.192 127.874C112.597 127.609 112.118 127.256 111.756 126.815C111.398 126.377 111.178 125.897 111.097 125.376C111.015 124.855 111.087 124.342 111.311 123.838C111.58 123.234 111.94 122.778 112.39 122.471C112.845 122.166 113.353 122.005 113.914 121.987C114.475 121.968 115.051 122.091 115.641 122.353C116.235 122.618 116.714 122.965 117.076 123.394C117.438 123.823 117.655 124.308 117.728 124.848C117.806 125.39 117.711 125.963 117.442 126.567ZM116.112 126.001C116.267 125.654 116.329 125.314 116.301 124.982C116.272 124.65 116.16 124.349 115.966 124.08C115.775 123.807 115.505 123.593 115.158 123.438C114.81 123.284 114.473 123.222 114.146 123.253C113.825 123.281 113.532 123.396 113.266 123.596C113.004 123.799 112.792 124.084 112.629 124.45C112.47 124.807 112.403 125.151 112.427 125.481C112.456 125.813 112.568 126.111 112.764 126.375C112.96 126.639 113.232 126.848 113.579 127.003C113.927 127.157 114.262 127.218 114.584 127.185C114.912 127.154 115.208 127.038 115.474 126.837C115.741 126.637 115.953 126.358 116.112 126.001ZM127.362 136.825C127.08 137.458 126.693 137.93 126.201 138.241C125.716 138.549 125.173 138.707 124.571 138.713C123.975 138.721 123.365 138.586 122.742 138.308C122.118 138.031 121.608 137.667 121.21 137.216C120.812 136.765 120.565 136.256 120.47 135.689C120.377 135.118 120.471 134.515 120.753 133.882C120.937 133.469 121.184 133.125 121.494 132.853C121.81 132.577 122.17 132.376 122.575 132.248C122.984 132.122 123.42 132.08 123.881 132.12C124.349 132.157 124.825 132.284 125.311 132.5C125.948 132.784 126.462 133.16 126.851 133.63C127.243 134.095 127.486 134.606 127.581 135.161C127.68 135.718 127.607 136.273 127.362 136.825ZM126.047 136.205C126.218 135.82 126.287 135.443 126.252 135.074C126.218 134.7 126.089 134.363 125.863 134.063C125.638 133.763 125.328 133.525 124.933 133.349C124.528 133.169 124.141 133.096 123.772 133.132C123.408 133.169 123.078 133.301 122.783 133.529C122.49 133.752 122.257 134.056 122.086 134.442C121.908 134.841 121.834 135.219 121.864 135.574C121.901 135.927 122.033 136.245 122.26 136.529C122.494 136.81 122.815 137.041 123.225 137.224C123.634 137.406 124.019 137.489 124.379 137.473C124.742 137.452 125.065 137.336 125.347 137.125C125.636 136.912 125.869 136.605 126.047 136.205ZM129.289 131.842C129.065 132.347 128.729 132.742 128.283 133.028C127.836 133.313 127.33 133.47 126.765 133.498C126.2 133.525 125.624 133.409 125.039 133.148C124.444 132.884 123.966 132.531 123.603 132.09C123.246 131.651 123.026 131.172 122.944 130.651C122.863 130.13 122.934 129.617 123.159 129.113C123.428 128.508 123.787 128.053 124.238 127.746C124.692 127.441 125.201 127.28 125.762 127.261C126.323 127.243 126.898 127.366 127.488 127.628C128.083 127.893 128.561 128.24 128.923 128.669C129.285 129.098 129.503 129.583 129.576 130.123C129.654 130.665 129.558 131.238 129.289 131.842ZM127.959 131.276C128.114 130.929 128.177 130.589 128.148 130.257C128.119 129.925 128.008 129.624 127.814 129.355C127.622 129.082 127.353 128.868 127.005 128.713C126.658 128.558 126.321 128.497 125.993 128.528C125.673 128.556 125.379 128.67 125.113 128.871C124.852 129.074 124.64 129.359 124.477 129.725C124.318 130.082 124.25 130.425 124.274 130.755C124.303 131.088 124.416 131.386 124.612 131.65C124.808 131.914 125.079 132.123 125.427 132.278C125.774 132.432 126.109 132.493 126.432 132.46C126.759 132.429 127.056 132.313 127.322 132.112C127.588 131.912 127.801 131.633 127.959 131.276ZM136.985 137.261L136.28 138.846C135.9 139.697 135.504 140.382 135.092 140.899C134.679 141.417 134.25 141.79 133.806 142.02C133.361 142.25 132.901 142.356 132.424 142.337C131.955 142.316 131.468 142.194 130.964 141.969C130.564 141.791 130.217 141.577 129.924 141.327C129.631 141.076 129.397 140.781 129.223 140.442C129.057 140.1 128.957 139.708 128.926 139.266C128.895 138.824 128.942 138.327 129.069 137.773C129.196 137.22 129.411 136.603 129.713 135.922L130.419 134.338C130.798 133.486 131.192 132.806 131.601 132.298C132.014 131.793 132.441 131.43 132.881 131.209C133.323 130.984 133.778 130.885 134.245 130.91C134.718 130.938 135.203 131.063 135.703 131.286C136.107 131.466 136.456 131.681 136.75 131.931C137.05 132.179 137.286 132.469 137.457 132.802C137.63 133.13 137.731 133.511 137.76 133.946C137.795 134.378 137.751 134.868 137.626 135.417C137.502 135.966 137.288 136.581 136.985 137.261ZM134.857 138.469L135.756 136.449C135.964 135.983 136.117 135.561 136.217 135.183C136.323 134.803 136.381 134.464 136.388 134.165C136.396 133.866 136.354 133.602 136.262 133.373C136.175 133.146 136.042 132.95 135.865 132.786C135.694 132.619 135.48 132.478 135.223 132.363C134.909 132.224 134.604 132.159 134.309 132.17C134.015 132.176 133.729 132.268 133.45 132.446C133.176 132.626 132.905 132.902 132.637 133.273C132.37 133.644 132.105 134.122 131.845 134.708L130.946 136.727C130.738 137.194 130.581 137.617 130.474 137.997C130.373 138.379 130.318 138.726 130.311 139.036C130.306 139.342 130.345 139.613 130.428 139.849C130.511 140.086 130.637 140.29 130.805 140.462C130.981 140.631 131.194 140.772 131.447 140.884C131.77 141.028 132.081 141.093 132.379 141.077C132.676 141.061 132.964 140.959 133.243 140.769C133.528 140.577 133.803 140.291 134.068 139.913C134.335 139.531 134.598 139.049 134.857 138.469ZM145.207 140.922L144.501 142.506C144.122 143.358 143.726 144.043 143.313 144.56C142.901 145.077 142.472 145.451 142.028 145.681C141.583 145.911 141.123 146.016 140.646 145.998C140.177 145.977 139.69 145.854 139.186 145.63C138.786 145.452 138.439 145.238 138.146 144.987C137.853 144.737 137.619 144.442 137.445 144.102C137.278 143.76 137.179 143.368 137.148 142.927C137.116 142.485 137.164 141.987 137.291 141.434C137.418 140.88 137.632 140.263 137.935 139.583L138.641 137.998C139.02 137.147 139.414 136.467 139.822 135.959C140.236 135.453 140.663 135.09 141.103 134.87C141.545 134.645 142 134.545 142.467 134.571C142.939 134.599 143.425 134.724 143.925 134.946C144.329 135.126 144.678 135.342 144.972 135.592C145.272 135.84 145.507 136.13 145.679 136.463C145.852 136.791 145.953 137.172 145.982 137.607C146.017 138.039 145.973 138.529 145.848 139.078C145.724 139.627 145.51 140.241 145.207 140.922ZM143.079 142.129L143.978 140.11C144.186 139.643 144.339 139.221 144.439 138.844C144.545 138.464 144.602 138.124 144.61 137.825C144.618 137.527 144.575 137.263 144.484 137.034C144.397 136.807 144.264 136.611 144.087 136.446C143.916 136.279 143.702 136.138 143.445 136.024C143.131 135.884 142.826 135.82 142.531 135.831C142.237 135.837 141.951 135.929 141.672 136.107C141.398 136.287 141.127 136.563 140.859 136.934C140.592 137.305 140.327 137.783 140.067 138.368L139.168 140.388C138.96 140.854 138.803 141.278 138.696 141.658C138.595 142.04 138.54 142.386 138.533 142.697C138.528 143.002 138.567 143.273 138.65 143.51C138.733 143.746 138.858 143.95 139.027 144.122C139.203 144.292 139.416 144.433 139.669 144.545C139.992 144.689 140.303 144.753 140.6 144.737C140.898 144.722 141.186 144.619 141.464 144.429C141.75 144.237 142.025 143.952 142.29 143.574C142.557 143.191 142.82 142.71 143.079 142.129ZM155.653 149.421C155.371 150.054 154.984 150.526 154.492 150.837C154.007 151.146 153.464 151.303 152.863 151.309C152.266 151.317 151.656 151.182 151.033 150.905C150.41 150.627 149.899 150.263 149.501 149.812C149.103 149.361 148.857 148.852 148.761 148.285C148.668 147.714 148.762 147.111 149.044 146.479C149.228 146.065 149.475 145.721 149.785 145.449C150.101 145.173 150.462 144.972 150.866 144.844C151.276 144.719 151.711 144.676 152.172 144.716C152.64 144.753 153.117 144.88 153.602 145.096C154.24 145.38 154.753 145.757 155.143 146.226C155.534 146.691 155.777 147.202 155.872 147.757C155.972 148.314 155.899 148.869 155.653 149.421ZM154.338 148.802C154.51 148.416 154.578 148.039 154.543 147.67C154.51 147.296 154.38 146.959 154.155 146.659C153.929 146.359 153.619 146.121 153.224 145.945C152.82 145.765 152.433 145.693 152.064 145.728C151.699 145.765 151.369 145.898 151.074 146.125C150.781 146.348 150.549 146.653 150.377 147.038C150.199 147.438 150.125 147.815 150.155 148.171C150.192 148.523 150.324 148.841 150.551 149.125C150.785 149.406 151.107 149.638 151.516 149.82C151.925 150.002 152.31 150.085 152.671 150.069C153.034 150.048 153.356 149.932 153.638 149.721C153.927 149.508 154.16 149.201 154.338 148.802ZM157.581 144.438C157.356 144.943 157.021 145.338 156.574 145.624C156.128 145.909 155.622 146.066 155.056 146.094C154.491 146.122 153.916 146.005 153.33 145.744C152.736 145.48 152.257 145.127 151.895 144.686C151.537 144.248 151.317 143.768 151.236 143.247C151.154 142.726 151.225 142.213 151.45 141.709C151.719 141.105 152.079 140.649 152.529 140.342C152.984 140.037 153.492 139.876 154.053 139.858C154.614 139.839 155.19 139.962 155.78 140.224C156.374 140.489 156.853 140.836 157.215 141.265C157.577 141.694 157.794 142.179 157.867 142.719C157.945 143.261 157.85 143.834 157.581 144.438ZM156.251 143.872C156.405 143.525 156.468 143.185 156.439 142.853C156.411 142.521 156.299 142.22 156.105 141.951C155.914 141.678 155.644 141.464 155.297 141.309C154.949 141.155 154.612 141.093 154.285 141.124C153.964 141.152 153.671 141.267 153.405 141.467C153.143 141.67 152.931 141.955 152.768 142.321C152.609 142.678 152.542 143.022 152.566 143.352C152.595 143.684 152.707 143.982 152.903 144.246C153.099 144.51 153.371 144.719 153.718 144.874C154.065 145.028 154.4 145.089 154.723 145.056C155.05 145.025 155.347 144.909 155.613 144.708C155.879 144.508 156.092 144.229 156.251 143.872ZM165.276 149.857L164.571 151.442C164.192 152.293 163.796 152.978 163.383 153.495C162.97 154.013 162.541 154.387 162.097 154.616C161.653 154.846 161.192 154.952 160.716 154.933C160.246 154.913 159.759 154.79 159.255 154.565C158.855 154.387 158.509 154.173 158.215 153.923C157.922 153.672 157.689 153.378 157.515 153.038C157.348 152.696 157.249 152.304 157.217 151.862C157.186 151.421 157.234 150.923 157.36 150.369C157.487 149.816 157.702 149.199 158.005 148.518L158.71 146.934C159.089 146.082 159.483 145.402 159.892 144.894C160.305 144.389 160.732 144.026 161.172 143.805C161.614 143.58 162.069 143.481 162.537 143.506C163.009 143.534 163.495 143.659 163.994 143.882C164.399 144.062 164.748 144.277 165.041 144.527C165.341 144.775 165.577 145.065 165.748 145.398C165.921 145.726 166.022 146.107 166.051 146.542C166.087 146.974 166.042 147.465 165.918 148.013C165.793 148.562 165.579 149.177 165.276 149.857ZM163.148 151.065L164.047 149.045C164.255 148.579 164.409 148.157 164.508 147.779C164.615 147.399 164.672 147.06 164.679 146.761C164.687 146.462 164.645 146.198 164.553 145.969C164.466 145.742 164.334 145.547 164.156 145.382C163.985 145.215 163.772 145.074 163.515 144.96C163.201 144.82 162.896 144.755 162.6 144.766C162.307 144.772 162.02 144.864 161.742 145.042C161.468 145.223 161.197 145.498 160.929 145.869C160.661 146.24 160.397 146.718 160.136 147.304L159.237 149.323C159.029 149.79 158.872 150.213 158.766 150.593C158.664 150.975 158.61 151.322 158.602 151.632C158.597 151.938 158.636 152.209 158.719 152.445C158.802 152.682 158.928 152.886 159.096 153.058C159.272 153.227 159.486 153.368 159.738 153.48C160.062 153.624 160.372 153.689 160.67 153.673C160.968 153.657 161.256 153.555 161.534 153.365C161.819 153.173 162.094 152.888 162.359 152.51C162.627 152.127 162.89 151.645 163.148 151.065ZM173.498 153.518L172.793 155.102C172.414 155.954 172.018 156.639 171.605 157.156C171.192 157.674 170.763 158.047 170.319 158.277C169.875 158.507 169.414 158.612 168.938 158.594C168.468 158.573 167.981 158.45 167.477 158.226C167.077 158.048 166.731 157.834 166.437 157.583C166.144 157.333 165.91 157.038 165.737 156.699C165.57 156.356 165.471 155.964 165.439 155.523C165.408 155.081 165.455 154.584 165.582 154.03C165.709 153.476 165.924 152.859 166.227 152.179L166.932 150.595C167.311 149.743 167.705 149.063 168.114 148.555C168.527 148.049 168.954 147.686 169.394 147.466C169.836 147.241 170.291 147.141 170.759 147.167C171.231 147.195 171.717 147.32 172.216 147.542C172.621 147.723 172.97 147.938 173.263 148.188C173.563 148.436 173.799 148.726 173.97 149.059C174.143 149.387 174.244 149.768 174.273 150.203C174.309 150.635 174.264 151.125 174.14 151.674C174.015 152.223 173.801 152.838 173.498 153.518ZM171.37 154.725L172.269 152.706C172.477 152.239 172.631 151.817 172.73 151.44C172.837 151.06 172.894 150.72 172.901 150.422C172.909 150.123 172.867 149.859 172.775 149.63C172.688 149.403 172.556 149.207 172.378 149.043C172.207 148.875 171.993 148.735 171.737 148.62C171.422 148.48 171.118 148.416 170.822 148.427C170.529 148.433 170.242 148.525 169.964 148.703C169.69 148.883 169.419 149.159 169.151 149.53C168.883 149.901 168.619 150.379 168.358 150.964L167.459 152.984C167.251 153.45 167.094 153.874 166.988 154.254C166.886 154.636 166.831 154.982 166.824 155.293C166.819 155.598 166.858 155.87 166.941 156.106C167.024 156.342 167.15 156.547 167.318 156.719C167.494 156.888 167.708 157.029 167.96 157.141C168.283 157.285 168.594 157.349 168.892 157.334C169.19 157.318 169.478 157.215 169.756 157.026C170.041 156.833 170.316 156.548 170.581 156.17C170.849 155.788 171.112 155.306 171.37 154.725ZM181.72 157.179L181.015 158.763C180.636 159.615 180.24 160.299 179.827 160.817C179.414 161.334 178.985 161.708 178.541 161.938C178.097 162.167 177.636 162.273 177.16 162.255C176.69 162.234 176.203 162.111 175.699 161.886C175.299 161.709 174.953 161.494 174.659 161.244C174.366 160.994 174.132 160.699 173.959 160.359C173.792 160.017 173.693 159.625 173.661 159.183C173.63 158.742 173.677 158.244 173.804 157.691C173.931 157.137 174.146 156.52 174.449 155.84L175.154 154.255C175.533 153.403 175.927 152.724 176.336 152.216C176.749 151.71 177.176 151.347 177.616 151.127C178.058 150.902 178.513 150.802 178.981 150.828C179.453 150.856 179.939 150.981 180.438 151.203C180.843 151.383 181.192 151.598 181.485 151.849C181.785 152.096 182.021 152.387 182.192 152.719C182.365 153.047 182.466 153.429 182.495 153.863C182.531 154.295 182.486 154.786 182.362 155.335C182.237 155.884 182.023 156.498 181.72 157.179ZM179.592 158.386L180.491 156.366C180.699 155.9 180.852 155.478 180.952 155.101C181.059 154.72 181.116 154.381 181.123 154.082C181.131 153.783 181.089 153.519 180.997 153.29C180.91 153.064 180.777 152.868 180.6 152.703C180.429 152.536 180.215 152.395 179.958 152.281C179.644 152.141 179.34 152.076 179.044 152.087C178.75 152.094 178.464 152.186 178.185 152.364C177.911 152.544 177.64 152.819 177.373 153.191C177.105 153.562 176.841 154.04 176.58 154.625L175.681 156.645C175.473 157.111 175.316 157.534 175.21 157.914C175.108 158.297 175.053 158.643 175.046 158.953C175.041 159.259 175.08 159.53 175.163 159.767C175.246 160.003 175.372 160.207 175.54 160.379C175.716 160.549 175.93 160.689 176.182 160.802C176.505 160.946 176.816 161.01 177.114 160.994C177.411 160.979 177.699 160.876 177.978 160.686C178.263 160.494 178.538 160.209 178.803 159.831C179.071 159.448 179.333 158.967 179.592 158.386ZM192.166 165.678C191.885 166.311 191.498 166.783 191.006 167.094C190.521 167.402 189.977 167.56 189.376 167.566C188.78 167.574 188.17 167.439 187.546 167.161C186.923 166.884 186.412 166.52 186.014 166.069C185.617 165.618 185.37 165.109 185.275 164.542C185.181 163.97 185.276 163.368 185.557 162.735C185.742 162.321 185.989 161.978 186.298 161.705C186.615 161.43 186.975 161.229 187.38 161.101C187.789 160.975 188.224 160.932 188.685 160.972C189.153 161.01 189.63 161.136 190.115 161.353C190.753 161.636 191.267 162.013 191.656 162.483C192.048 162.948 192.291 163.458 192.386 164.014C192.485 164.571 192.412 165.126 192.166 165.678ZM190.852 165.058C191.023 164.673 191.091 164.296 191.056 163.926C191.023 163.553 190.894 163.216 190.668 162.916C190.443 162.616 190.132 162.378 189.737 162.202C189.333 162.022 188.946 161.949 188.577 161.985C188.213 162.022 187.883 162.154 187.588 162.382C187.294 162.605 187.062 162.909 186.89 163.295C186.713 163.694 186.638 164.072 186.668 164.427C186.705 164.78 186.837 165.098 187.064 165.382C187.298 165.663 187.62 165.894 188.029 166.077C188.439 166.259 188.823 166.342 189.184 166.326C189.547 166.305 189.869 166.189 190.151 165.978C190.44 165.765 190.674 165.458 190.852 165.058ZM194.094 160.695C193.869 161.2 193.534 161.595 193.087 161.88C192.641 162.166 192.135 162.323 191.57 162.351C191.004 162.378 190.429 162.262 189.844 162.001C189.249 161.736 188.77 161.384 188.408 160.943C188.05 160.504 187.83 160.025 187.749 159.504C187.667 158.983 187.739 158.47 187.963 157.966C188.232 157.361 188.592 156.906 189.042 156.599C189.497 156.294 190.005 156.132 190.566 156.114C191.127 156.096 191.703 156.218 192.293 156.481C192.888 156.746 193.366 157.093 193.728 157.522C194.09 157.951 194.308 158.436 194.381 158.976C194.459 159.518 194.363 160.091 194.094 160.695ZM192.764 160.129C192.919 159.781 192.982 159.442 192.953 159.11C192.924 158.777 192.813 158.477 192.619 158.208C192.427 157.935 192.157 157.721 191.81 157.566C191.463 157.411 191.125 157.349 190.798 157.38C190.477 157.409 190.184 157.523 189.918 157.724C189.657 157.927 189.444 158.212 189.281 158.578C189.122 158.935 189.055 159.278 189.079 159.608C189.108 159.94 189.22 160.239 189.416 160.503C189.612 160.767 189.884 160.976 190.231 161.131C190.579 161.285 190.914 161.346 191.236 161.313C191.564 161.282 191.86 161.166 192.127 160.965C192.393 160.764 192.605 160.486 192.764 160.129ZM201.79 166.114L201.084 167.699C200.705 168.55 200.309 169.235 199.896 169.752C199.483 170.27 199.055 170.643 198.61 170.873C198.166 171.103 197.706 171.209 197.229 171.19C196.76 171.169 196.273 171.047 195.768 170.822C195.369 170.644 195.022 170.43 194.729 170.18C194.435 169.929 194.202 169.634 194.028 169.295C193.861 168.952 193.762 168.56 193.731 168.119C193.699 167.677 193.747 167.18 193.874 166.626C194 166.072 194.215 165.455 194.518 164.775L195.224 163.191C195.603 162.339 195.997 161.659 196.405 161.151C196.819 160.645 197.245 160.282 197.685 160.062C198.128 159.837 198.582 159.738 199.05 159.763C199.522 159.791 200.008 159.916 200.508 160.139C200.912 160.319 201.261 160.534 201.554 160.784C201.855 161.032 202.09 161.322 202.261 161.655C202.435 161.983 202.536 162.364 202.564 162.799C202.6 163.231 202.556 163.721 202.431 164.27C202.306 164.819 202.093 165.434 201.79 166.114ZM199.661 167.322L200.561 165.302C200.768 164.836 200.922 164.414 201.022 164.036C201.128 163.656 201.185 163.316 201.193 163.018C201.2 162.719 201.158 162.455 201.066 162.226C200.979 161.999 200.847 161.803 200.669 161.639C200.499 161.471 200.285 161.331 200.028 161.216C199.714 161.076 199.409 161.012 199.113 161.023C198.82 161.029 198.534 161.121 198.255 161.299C197.981 161.479 197.71 161.755 197.442 162.126C197.174 162.497 196.91 162.975 196.65 163.56L195.75 165.58C195.543 166.047 195.386 166.47 195.279 166.85C195.177 167.232 195.123 167.579 195.116 167.889C195.111 168.195 195.15 168.466 195.233 168.702C195.315 168.939 195.441 169.143 195.61 169.315C195.785 169.484 195.999 169.625 196.251 169.737C196.575 169.881 196.885 169.945 197.183 169.93C197.481 169.914 197.769 169.811 198.047 169.622C198.332 169.429 198.608 169.144 198.873 168.766C199.14 168.384 199.403 167.902 199.661 167.322ZM210.012 169.775L209.306 171.359C208.927 172.211 208.531 172.895 208.118 173.413C207.705 173.93 207.277 174.304 206.832 174.534C206.388 174.763 205.928 174.869 205.451 174.851C204.981 174.83 204.494 174.707 203.99 174.483C203.59 174.305 203.244 174.091 202.951 173.84C202.657 173.59 202.424 173.295 202.25 172.955C202.083 172.613 201.984 172.221 201.952 171.78C201.921 171.338 201.969 170.84 202.095 170.287C202.222 169.733 202.437 169.116 202.74 168.436L203.445 166.851C203.825 166 204.219 165.32 204.627 164.812C205.04 164.306 205.467 163.943 205.907 163.723C206.35 163.498 206.804 163.398 207.272 163.424C207.744 163.452 208.23 163.577 208.73 163.799C209.134 163.979 209.483 164.194 209.776 164.445C210.076 164.692 210.312 164.983 210.483 165.315C210.656 165.643 210.758 166.025 210.786 166.459C210.822 166.892 210.778 167.382 210.653 167.931C210.528 168.48 210.314 169.094 210.012 169.775ZM207.883 170.982L208.783 168.962C208.99 168.496 209.144 168.074 209.243 167.697C209.35 167.317 209.407 166.977 209.415 166.678C209.422 166.38 209.38 166.116 209.288 165.887C209.201 165.66 209.069 165.464 208.891 165.299C208.721 165.132 208.507 164.991 208.25 164.877C207.936 164.737 207.631 164.673 207.335 164.684C207.042 164.69 206.756 164.782 206.477 164.96C206.203 165.14 205.932 165.416 205.664 165.787C205.396 166.158 205.132 166.636 204.871 167.221L203.972 169.241C203.765 169.707 203.607 170.13 203.501 170.511C203.399 170.893 203.345 171.239 203.338 171.55C203.333 171.855 203.372 172.126 203.455 172.363C203.537 172.599 203.663 172.803 203.832 172.975C204.007 173.145 204.221 173.286 204.473 173.398C204.797 173.542 205.107 173.606 205.405 173.59C205.703 173.575 205.991 173.472 206.269 173.282C206.554 173.09 206.829 172.805 207.095 172.427C207.362 172.044 207.625 171.563 207.883 170.982Z" fill="white"/>
<path d="M219.362 100.805C219.626 100.214 219.765 99.6505 219.781 99.1155C219.814 98.5742 219.687 98.0172 219.399 97.4447C219.124 96.8774 218.667 96.25 218.028 95.5625C217.401 94.8802 216.567 94.0992 215.527 93.2194C214.44 92.2906 213.493 91.3754 212.685 90.4738C211.883 89.5607 211.254 88.6483 210.798 87.7367C210.342 86.825 210.093 85.9013 210.051 84.9655C210.009 84.0296 210.208 83.0688 210.647 82.083C211.086 81.0972 211.694 80.2771 212.472 79.6228C213.249 78.9685 214.152 78.5018 215.18 78.2228C216.224 77.9373 217.351 77.8555 218.561 77.9775C219.772 78.0994 221.026 78.4496 222.325 79.0279C224.227 79.8748 225.677 80.9578 226.674 82.2771C227.687 83.59 228.281 84.9871 228.456 86.4682C228.635 87.9378 228.43 89.3337 227.842 90.6559L224.502 89.1687C224.925 88.2177 225.096 87.2865 225.016 86.3751C224.94 85.4521 224.584 84.5986 223.946 83.8144C223.314 83.0187 222.366 82.3394 221.102 81.7766C219.907 81.2447 218.841 80.9856 217.904 80.9991C216.967 81.0127 216.17 81.2416 215.514 81.6859C214.869 82.1354 214.371 82.7544 214.02 83.543C213.782 84.0765 213.676 84.6127 213.7 85.1515C213.741 85.6839 213.916 86.2415 214.227 86.8244C214.548 87.4124 215.011 88.0282 215.614 88.6718C216.228 89.3206 216.993 90.0223 217.907 90.777C219.165 91.8232 220.204 92.828 221.026 93.7914C221.848 94.7549 222.456 95.6995 222.849 96.6252C223.26 97.5446 223.452 98.4709 223.426 99.4041C223.416 100.331 223.192 101.287 222.753 102.273C222.293 103.305 221.669 104.146 220.88 104.795C220.09 105.444 219.175 105.891 218.135 106.137C217.095 106.383 215.957 106.425 214.722 106.264C213.504 106.097 212.228 105.717 210.895 105.123C209.723 104.601 208.642 103.925 207.65 103.095C206.669 102.269 205.86 101.325 205.221 100.262C204.594 99.2048 204.214 98.0767 204.081 96.8778C203.964 95.6725 204.187 94.4378 204.75 93.1736L208.09 94.6608C207.703 95.5306 207.538 96.3535 207.596 97.1296C207.658 97.894 207.889 98.6083 208.288 99.2724C208.699 99.9416 209.232 100.54 209.886 101.068C210.557 101.589 211.299 102.03 212.111 102.392C213.282 102.913 214.346 103.192 215.302 103.229C216.259 103.266 217.08 103.076 217.766 102.658C218.464 102.246 218.996 101.629 219.362 100.805ZM238.802 86.7805L227.524 112.11L224.167 110.615L235.444 85.2856L238.802 86.7805ZM254.093 93.5888L238.309 100.715L229.66 104.223L230.699 100.391L237.337 97.4681L250.057 91.7918L254.093 93.5888ZM239.58 117.478L235.703 100.951L238.888 99.1802L243.581 119.259L239.58 117.478ZM261.417 96.8496L250.14 122.179L246.782 120.684L258.06 95.3548L261.417 96.8496ZM267.84 115.572L266.662 118.217L258.173 114.437L259.35 111.792L267.84 115.572ZM279.857 123.508L273.09 120.495L274.306 117.763L281.073 120.776C282.384 121.36 283.538 121.623 284.536 121.567C285.533 121.511 286.383 121.195 287.085 120.618C287.798 120.046 288.366 119.285 288.79 118.334C289.177 117.464 289.349 116.561 289.308 115.625C289.277 114.694 288.959 113.816 288.354 112.991C287.754 112.154 286.799 111.444 285.488 110.86L279.504 108.196L269.45 130.777L266.092 129.282L277.37 103.952L286.712 108.112C288.626 108.964 290.096 110.014 291.124 111.264C292.152 112.514 292.747 113.877 292.91 115.353C293.078 116.817 292.829 118.297 292.163 119.794C291.44 121.417 290.48 122.651 289.285 123.494C288.09 124.338 286.696 124.767 285.106 124.781C283.52 124.784 281.771 124.36 279.857 123.508ZM305.823 119.309L287.16 138.661L283.733 137.136L304.665 116.105L306.875 117.089L305.823 119.309ZM302.573 145.524L304.449 118.698L305.396 116.43L307.605 117.414L306.018 147.058L302.573 145.524ZM306.313 135.954L305.089 138.702L290.859 132.366L292.083 129.618L306.313 135.954ZM325.76 148.176C326.024 147.585 326.163 147.022 326.179 146.487C326.212 145.945 326.084 145.389 325.797 144.816C325.522 144.249 325.065 143.621 324.426 142.934C323.798 142.252 322.965 141.47 321.925 140.591C320.838 139.662 319.89 138.747 319.083 137.845C318.28 136.932 317.651 136.02 317.196 135.108C316.74 134.196 316.491 133.273 316.449 132.337C316.407 131.401 316.606 130.44 317.045 129.454C317.483 128.468 318.092 127.648 318.869 126.994C319.647 126.34 320.55 125.873 321.577 125.594C322.622 125.309 323.749 125.227 324.959 125.349C326.169 125.471 327.424 125.821 328.723 126.399C330.625 127.246 332.075 128.329 333.071 129.648C334.085 130.961 334.679 132.358 334.853 133.84C335.033 135.309 334.828 136.705 334.24 138.027L330.899 136.54C331.323 135.589 331.494 134.658 331.414 133.746C331.338 132.823 330.982 131.97 330.344 131.186C329.712 130.39 328.763 129.711 327.499 129.148C326.305 128.616 325.239 128.357 324.302 128.37C323.365 128.384 322.568 128.613 321.911 129.057C321.267 129.507 320.769 130.126 320.418 130.914C320.18 131.448 320.073 131.984 320.097 132.523C320.138 133.055 320.314 133.613 320.624 134.196C320.946 134.784 321.408 135.399 322.011 136.043C322.626 136.692 323.39 137.394 324.305 138.148C325.562 139.194 326.602 140.199 327.424 141.163C328.246 142.126 328.853 143.071 329.247 143.997C329.658 144.916 329.85 145.842 329.823 146.775C329.814 147.702 329.59 148.658 329.151 149.644C328.691 150.677 328.067 151.517 327.277 152.166C326.488 152.815 325.573 153.263 324.533 153.508C323.492 153.754 322.355 153.796 321.12 153.636C319.902 153.469 318.626 153.088 317.292 152.494C316.121 151.973 315.039 151.297 314.047 150.466C313.067 149.64 312.257 148.696 311.619 147.634C310.992 146.576 310.612 145.448 310.478 144.249C310.362 143.044 310.585 141.809 311.148 140.545L314.488 142.032C314.101 142.902 313.936 143.725 313.993 144.501C314.056 145.265 314.287 145.98 314.686 146.644C315.097 147.313 315.629 147.911 316.284 148.439C316.955 148.96 317.697 149.402 318.508 149.763C319.68 150.285 320.744 150.564 321.7 150.6C322.657 150.637 323.478 150.447 324.164 150.03C324.861 149.618 325.394 149 325.76 148.176ZM346.914 157.595C347.178 157.003 347.317 156.44 347.333 155.905C347.366 155.364 347.239 154.807 346.951 154.235C346.676 153.667 346.219 153.04 345.58 152.352C344.953 151.67 344.119 150.889 343.079 150.009C341.992 149.08 341.045 148.165 340.237 147.264C339.435 146.351 338.806 145.438 338.35 144.526C337.894 143.615 337.645 142.691 337.603 141.755C337.561 140.819 337.76 139.859 338.199 138.873C338.638 137.887 339.246 137.067 340.024 136.413C340.801 135.758 341.704 135.292 342.732 135.013C343.776 134.727 344.903 134.645 346.113 134.767C347.324 134.889 348.578 135.239 349.877 135.818C351.779 136.665 353.229 137.748 354.226 139.067C355.239 140.38 355.833 141.777 356.008 143.258C356.187 144.728 355.982 146.124 355.394 147.446L352.054 145.959C352.477 145.008 352.648 144.076 352.568 143.165C352.492 142.242 352.136 141.388 351.498 140.604C350.866 139.809 349.918 139.129 348.654 138.566C347.459 138.035 346.393 137.775 345.456 137.789C344.519 137.803 343.722 138.031 343.066 138.476C342.421 138.925 341.923 139.544 341.572 140.333C341.334 140.866 341.228 141.403 341.252 141.941C341.293 142.474 341.468 143.031 341.779 143.614C342.1 144.202 342.563 144.818 343.166 145.462C343.78 146.11 344.545 146.812 345.459 147.567C346.717 148.613 347.756 149.618 348.578 150.581C349.4 151.545 350.008 152.489 350.401 153.415C350.812 154.334 351.004 155.261 350.978 156.194C350.968 157.121 350.744 158.077 350.305 159.063C349.845 160.095 349.221 160.936 348.432 161.585C347.642 162.234 346.727 162.681 345.687 162.927C344.647 163.172 343.509 163.215 342.274 163.054C341.056 162.887 339.78 162.507 338.447 161.913C337.275 161.391 336.194 160.715 335.202 159.884C334.221 159.059 333.412 158.115 332.773 157.052C332.146 155.995 331.766 154.867 331.633 153.668C331.516 152.462 331.739 151.228 332.302 149.963L335.642 151.451C335.255 152.32 335.09 153.143 335.148 153.919C335.21 154.684 335.441 155.398 335.84 156.062C336.251 156.731 336.784 157.33 337.438 157.858C338.109 158.379 338.851 158.82 339.663 159.182C340.834 159.703 341.898 159.982 342.854 160.019C343.811 160.056 344.632 159.865 345.318 159.448C346.016 159.036 346.548 158.418 346.914 157.595Z" fill="white"/>
<path d="M186.137 27.4744L136.07 55.9179L148.434 112.157L199.334 84.0846L186.137 27.4744Z" stroke="white"/>
<g clip-path="url(#clip0_578_2)">
<path d="M160.451 92.2011L160.492 92.6676L161.186 92.1394C161.186 92.1394 162.45 90.9741 162.069 91.9259C161.887 92.8857 162.402 92.015 162.402 92.015C162.483 91.9273 163.669 89.8733 162.698 92.32C161.729 94.7651 162.885 92.5226 162.933 92.6177C163.659 94.0732 163.986 97.4557 163.986 97.4557L160.787 96.0314L160.81 96.2989L164.264 97.8367L163.546 89.6419L160.451 92.2011Z" fill="white"/>
<path d="M159.879 91.3785L159.82 90.7042L158.828 79.418L145.826 90.1702L155.342 94.4069L160.339 96.6316L160.305 96.2436L159.879 91.3785ZM156.137 94.2196L155.768 94.0553L146.779 90.053L153.871 84.6649C153.871 84.6649 156.527 82.2178 155.725 84.215C155.345 86.2309 156.427 84.4028 156.427 84.4028C156.594 84.2196 159.086 79.9031 157.049 85.0422C155.013 90.1818 157.441 85.4677 157.541 85.6681C158.232 87.0566 158.751 89.2776 159.113 91.2892C159.148 91.4887 159.183 91.6865 159.215 91.8815C159.58 94.0454 159.752 95.8291 159.752 95.8291L156.137 94.2196Z" fill="white"/>
<path d="M160.535 84.7659L160.943 87.9635L163.998 89.324L166.648 87.4872L166.24 84.2894L163.184 82.9289L160.535 84.7659ZM162.699 86.006L161.896 85.6484L161.999 85.4178L162.802 85.7753L162.699 86.006ZM165.324 84.8466L165.455 86.5149L162.056 85.0016L163.383 83.9825L165.324 84.8466Z" fill="white"/>
<path d="M165.845 83.121L164.312 82.4385L164.123 82.8651L165.655 83.5476L165.845 83.121Z" fill="white"/>
<path d="M166.373 81.0956L166.436 81.0425L165.556 80.0883L165.504 80.1318L161.54 75.7406L161.173 76.047L165.142 80.4427L165.136 80.447L165.321 80.6477L165.27 80.6956L165.785 81.9443L165.011 82.2192L165.142 82.5347L166.237 82.1454L165.864 81.2428L172.035 88.078L172.401 87.7714L166.373 81.0956Z" fill="white"/>
</g>
<line y1="-0.297343" x2="62.3171" y2="-0.297343" transform="matrix(0.917217 0.398389 -0.399149 0.916886 139.305 58.2014)" stroke="white" stroke-width="0.594686"/>
<path d="M152.463 59.4541C152.544 59.2737 152.586 59.1019 152.591 58.9388C152.601 58.7737 152.562 58.6038 152.475 58.4292C152.391 58.2562 152.251 58.0649 152.056 57.8552C151.865 57.6471 151.611 57.4089 151.294 57.1406C150.962 56.8574 150.673 56.5783 150.427 56.3033C150.182 56.0249 149.99 55.7466 149.851 55.4686C149.713 55.1906 149.637 54.9089 149.624 54.6235C149.611 54.3381 149.672 54.045 149.805 53.7444C149.939 53.4438 150.125 53.1937 150.362 52.9941C150.599 52.7946 150.874 52.6523 151.188 52.5672C151.506 52.4801 151.85 52.4552 152.219 52.4924C152.588 52.5296 152.971 52.6363 153.367 52.8127C153.947 53.071 154.389 53.4013 154.693 53.8036C155.002 54.204 155.183 54.6301 155.237 55.0818C155.291 55.5299 155.229 55.9556 155.049 56.3589L154.031 55.9053C154.16 55.6153 154.212 55.3313 154.188 55.0534C154.165 54.7719 154.056 54.5116 153.861 54.2724C153.669 54.0298 153.379 53.8226 152.994 53.651C152.63 53.4888 152.304 53.4097 152.019 53.4139C151.733 53.418 151.49 53.4878 151.29 53.6233C151.093 53.7604 150.941 53.9492 150.834 54.1897C150.762 54.3524 150.729 54.5159 150.737 54.6802C150.749 54.8426 150.803 55.0126 150.897 55.1904C150.995 55.3697 151.136 55.5575 151.32 55.7538C151.508 55.9516 151.741 56.1656 152.02 56.3958C152.403 56.7148 152.72 57.0213 152.971 57.3151C153.221 57.6089 153.407 57.897 153.527 58.1793C153.652 58.4597 153.711 58.7422 153.703 59.0268C153.7 59.3094 153.631 59.6011 153.497 59.9017C153.357 60.2165 153.167 60.4729 152.926 60.6708C152.685 60.8688 152.406 61.0052 152.089 61.0801C151.772 61.155 151.425 61.1679 151.048 61.1189C150.677 61.068 150.288 60.9519 149.881 60.7708C149.524 60.6118 149.194 60.4056 148.891 60.1522C148.592 59.9005 148.346 59.6125 148.151 59.2885C147.96 58.966 147.844 58.622 147.803 58.2564C147.767 57.8888 147.835 57.5122 148.007 57.1267L149.026 57.5802C148.908 57.8455 148.857 58.0965 148.875 58.3331C148.894 58.5662 148.964 58.7841 149.086 58.9866C149.211 59.1907 149.374 59.3732 149.573 59.5341C149.778 59.6931 150.004 59.8277 150.252 59.9379C150.609 60.0969 150.934 60.1821 151.225 60.1933C151.517 60.2045 151.767 60.1465 151.977 60.0192C152.189 59.8936 152.352 59.7052 152.463 59.4541ZM158.392 55.177L154.953 62.9017L153.929 62.4458L157.368 54.7211L158.392 55.177ZM163.055 57.2533L158.242 59.4266L155.604 60.4963L155.921 59.3278L157.945 58.4364L161.824 56.7053L163.055 57.2533ZM158.629 64.5386L157.447 59.4986L158.418 58.9585L159.849 65.0819L158.629 64.5386ZM165.289 58.2478L161.85 65.9724L160.826 65.5165L164.265 57.7919L165.289 58.2478ZM167.247 63.9575L166.888 64.764L164.299 63.6112L164.658 62.8048L167.247 63.9575ZM170.912 66.3775L168.849 65.4587L169.219 64.6257L171.283 65.5446C171.683 65.7225 172.035 65.803 172.339 65.7859C172.643 65.7688 172.903 65.6722 173.116 65.4963C173.334 65.3219 173.507 65.0897 173.636 64.7996C173.755 64.5344 173.807 64.259 173.794 63.9736C173.785 63.6898 173.688 63.422 173.504 63.1703C173.321 62.9151 173.029 62.6985 172.63 62.5205L170.805 61.708L167.739 68.5944L166.715 68.1385L170.154 60.4138L173.003 61.6823C173.586 61.9421 174.035 62.2626 174.348 62.6437C174.662 63.0248 174.843 63.4405 174.893 63.8906C174.944 64.3372 174.868 64.7886 174.665 65.2449C174.445 65.7401 174.152 66.1163 173.788 66.3735C173.423 66.6308 172.998 66.7616 172.513 66.766C172.029 66.7669 171.496 66.6374 170.912 66.3775ZM178.831 65.0973L173.139 70.999L172.094 70.5337L178.478 64.12L179.152 64.42L178.831 65.0973ZM177.84 73.0918L178.412 64.9107L178.701 64.2192L179.375 64.5192L178.89 73.5595L177.84 73.0918ZM178.981 70.1732L178.607 71.0114L174.268 69.0792L174.641 68.241L178.981 70.1732ZM183.364 66.2955L185.921 67.434C186.502 67.6923 186.952 67.9988 187.273 68.3536C187.597 68.71 187.787 69.1079 187.841 69.5474C187.901 69.985 187.819 70.4549 187.595 70.9572C187.438 71.3109 187.221 71.6022 186.945 71.8312C186.675 72.0582 186.359 72.2145 185.999 72.3C185.644 72.3835 185.259 72.392 184.843 72.3257L184.507 72.3096L182.104 71.2396L182.464 70.4019L184.279 71.2097C184.646 71.3735 184.981 71.446 185.281 71.4274C185.584 71.4052 185.846 71.312 186.067 71.1478C186.288 70.9836 186.458 70.7689 186.576 70.5036C186.709 70.2065 186.766 69.9206 186.748 69.6458C186.731 69.371 186.623 69.1176 186.426 68.8855C186.233 68.6515 185.941 68.4471 185.548 68.2723L184.015 67.5896L180.949 74.476L179.925 74.0201L183.364 66.2955ZM184.44 76.0303L184.121 71.6926L185.19 72.162L185.561 76.4532L185.533 76.5169L184.44 76.0303ZM191.084 69.7324L187.644 77.457L186.62 77.0011L190.06 69.2765L191.084 69.7324ZM195.747 71.8087L190.933 73.9819L188.296 75.0516L188.613 73.8831L190.637 72.9917L194.516 71.2607L195.747 71.8087ZM191.321 79.094L190.139 74.054L191.11 73.5139L192.541 79.6373L191.321 79.094Z" fill="#FFFEFE"/>
<g filter="url(#filter1_bd_578_2)">
<path d="M7.25507 207.703C6.44542 205.648 7.45531 203.325 9.51073 202.515L253.28 106.492C255.336 105.682 257.658 106.692 258.468 108.748L308.312 235.285C309.122 237.34 308.112 239.663 306.056 240.472L62.2869 336.496C60.2315 337.305 57.9089 336.295 57.0992 334.24L7.25507 207.703Z" fill="url(#paint2_linear_578_2)"/>
</g>
<path d="M65.6377 291.308L68.7358 299.173L67.3838 299.705L64.2857 291.84L65.6377 291.308ZM68.2763 290.268L68.7058 291.359L62.1275 293.95L61.698 292.86L68.2763 290.268ZM75.4369 296.701C74.8893 296.917 74.3563 297.02 73.8379 297.012C73.3225 296.996 72.8381 296.882 72.3846 296.669C71.936 296.454 71.5353 296.147 71.1824 295.749C70.8296 295.35 70.5443 294.875 70.3267 294.322L70.2065 294.017C69.9545 293.377 69.8247 292.771 69.8171 292.197C69.8075 291.619 69.8964 291.091 70.0836 290.614C70.2709 290.138 70.5351 289.728 70.8764 289.387C71.2177 289.045 71.6088 288.788 72.0498 288.614C72.6119 288.393 73.1347 288.299 73.6181 288.332C74.1064 288.364 74.55 288.502 74.9492 288.748C75.3464 288.989 75.7006 289.32 76.0117 289.74C76.3209 290.156 76.5844 290.64 76.802 291.192L77.0396 291.796L71.1664 294.109L70.734 293.012L75.2625 291.228L75.2225 291.126C75.0656 290.785 74.8593 290.474 74.6035 290.194C74.3526 289.912 74.0518 289.717 73.7013 289.609C73.3508 289.501 72.9454 289.538 72.485 289.719C72.1797 289.839 71.9244 290.015 71.7191 290.247C71.5119 290.474 71.3659 290.75 71.281 291.075C71.1961 291.399 71.1744 291.763 71.2158 292.167C71.2572 292.57 71.3714 293.01 71.5585 293.485L71.6787 293.79C71.8257 294.163 72.015 294.494 72.2466 294.784C72.4811 295.066 72.7463 295.292 73.0424 295.461C73.3432 295.628 73.6643 295.725 74.0056 295.753C74.3517 295.779 74.7089 295.72 75.0772 295.575C75.5521 295.388 75.9161 295.132 76.1693 294.809C76.4225 294.485 76.6087 294.112 76.7279 293.69L77.7969 294.016C77.7284 294.34 77.6092 294.67 77.4391 295.005C77.2691 295.341 77.0213 295.657 76.6957 295.953C76.375 296.247 75.9554 296.497 75.4369 296.701ZM82.1672 284.797L82.6053 285.909L78.8036 287.406L78.3656 286.294L82.1672 284.797ZM83.352 284.33L86.4501 292.195L85.1054 292.725L82.0073 284.86L83.352 284.33ZM78.0385 286.423L79.3905 285.89L80.6816 289.765C80.8786 290.365 81.0272 290.905 81.1271 291.386C81.2301 291.861 81.2791 292.284 81.2743 292.655C81.2742 293.024 81.2174 293.349 81.1037 293.629C80.993 293.902 80.8235 294.14 80.5951 294.342C80.3649 294.539 80.0753 294.706 79.7264 294.843L79.3048 295.009L78.8381 293.825L79.1202 293.688C79.3229 293.592 79.4807 293.473 79.5936 293.334C79.7114 293.192 79.7896 293.022 79.8284 292.822C79.8653 292.617 79.8646 292.373 79.8265 292.092C79.7931 291.808 79.7238 291.483 79.6183 291.116C79.5177 290.747 79.3846 290.323 79.2188 289.846L78.0385 286.423ZM91.9372 290.201C91.3896 290.417 90.8567 290.521 90.3383 290.512C89.8229 290.497 89.3384 290.383 88.885 290.169C88.4364 289.954 88.0357 289.647 87.6828 289.249C87.3299 288.851 87.0447 288.375 86.8271 287.823L86.7068 287.517C86.4549 286.878 86.3251 286.271 86.3174 285.698C86.3079 285.119 86.3968 284.592 86.584 284.115C86.7712 283.638 87.0355 283.229 87.3768 282.887C87.7181 282.546 88.1092 282.288 88.5502 282.114C89.1123 281.893 89.6351 281.799 90.1185 281.832C90.6067 281.864 91.0504 282.003 91.4495 282.249C91.8467 282.49 92.2009 282.82 92.5121 283.241C92.8213 283.656 93.0848 284.14 93.3024 284.693L93.54 285.296L87.6668 287.61L87.2344 286.512L91.7629 284.728L91.7228 284.626C91.566 284.285 91.3597 283.974 91.1039 283.695C90.853 283.413 90.5522 283.218 90.2017 283.11C89.8512 283.001 89.4457 283.038 88.9854 283.219C88.6801 283.339 88.4248 283.516 88.2195 283.748C88.0123 283.975 87.8663 284.251 87.7814 284.575C87.6965 284.9 87.6747 285.264 87.7161 285.667C87.7575 286.071 87.8718 286.51 88.0588 286.985L88.1791 287.29C88.3261 287.663 88.5154 287.995 88.7469 288.284C88.9814 288.567 89.2467 288.792 89.5427 288.961C89.8436 289.128 90.1647 289.226 90.506 289.254C90.8521 289.28 91.2093 289.22 91.5776 289.075C92.0525 288.888 92.4165 288.633 92.6697 288.309C92.9228 287.985 93.109 287.613 93.2283 287.191L94.2972 287.517C94.2288 287.84 94.1096 288.17 93.9395 288.506C93.7694 288.841 93.5216 289.157 93.1961 289.454C92.8754 289.748 92.4557 289.997 91.9372 290.201ZM104.058 280.876L104.118 281.028C104.336 281.581 104.476 282.113 104.538 282.626C104.598 283.134 104.574 283.606 104.465 284.041C104.361 284.473 104.17 284.854 103.89 285.182C103.609 285.506 103.236 285.759 102.771 285.942C102.388 286.093 102.031 286.175 101.7 286.188C101.367 286.196 101.06 286.14 100.778 286.022C100.501 285.901 100.248 285.727 100.018 285.498C99.7911 285.263 99.587 284.98 99.406 284.648L98.0316 281.159C97.9282 280.769 97.8765 280.403 97.8763 280.061C97.881 279.718 97.9417 279.403 98.0583 279.116C98.1797 278.828 98.3615 278.571 98.6035 278.347C98.8455 278.123 99.1579 277.936 99.5407 277.785C99.9187 277.636 100.285 277.57 100.639 277.588C100.995 277.598 101.336 277.682 101.661 277.84C101.991 277.995 102.3 278.218 102.588 278.508C102.878 278.791 103.147 279.132 103.395 279.533C103.642 279.934 103.863 280.381 104.058 280.876ZM102.773 281.558L102.713 281.405C102.58 281.066 102.429 280.753 102.26 280.467C102.094 280.174 101.912 279.919 101.714 279.7C101.519 279.474 101.308 279.294 101.081 279.16C100.855 279.025 100.614 278.946 100.359 278.924C100.108 278.899 99.8475 278.94 99.5762 279.047C99.2854 279.162 99.0574 279.294 98.8922 279.443C98.7319 279.59 98.6222 279.745 98.5633 279.908C98.5025 280.066 98.4737 280.221 98.4768 280.371L100.272 284.928C100.372 285.012 100.497 285.08 100.647 285.133C100.794 285.181 100.975 285.2 101.189 285.188C101.401 285.172 101.65 285.107 101.936 284.995C102.275 284.861 102.537 284.68 102.721 284.451C102.907 284.215 103.027 283.943 103.08 283.637C103.138 283.329 103.137 282.999 103.077 282.648C103.022 282.294 102.92 281.931 102.773 281.558ZM94.7777 284.708L94.7176 284.555C94.5229 284.061 94.3794 283.583 94.287 283.121C94.1946 282.659 94.1582 282.226 94.1778 281.82C94.1954 281.41 94.2694 281.037 94.3998 280.7C94.5351 280.361 94.7272 280.067 94.9761 279.818C95.2279 279.562 95.5428 279.36 95.9208 279.211C96.294 279.064 96.6406 278.992 96.9607 278.994C97.2857 278.995 97.5861 279.062 97.862 279.194C98.1379 279.326 98.3923 279.517 98.625 279.766C98.8578 280.016 99.0719 280.318 99.2673 280.672L100.587 284.023C100.689 284.408 100.74 284.772 100.74 285.113C100.74 285.455 100.685 285.77 100.575 286.06C100.463 286.345 100.286 286.599 100.044 286.823C99.8073 287.045 99.4997 287.231 99.1218 287.38C98.6565 287.563 98.2108 287.632 97.7845 287.587C97.3563 287.538 96.9543 287.391 96.5783 287.147C96.2073 286.902 95.8681 286.573 95.5607 286.163C95.2563 285.745 94.9953 285.26 94.7777 284.708ZM96.0696 284.022L96.1297 284.175C96.2767 284.548 96.4456 284.885 96.6365 285.185C96.8323 285.483 97.0491 285.727 97.287 285.919C97.5297 286.109 97.795 286.228 98.083 286.277C98.3691 286.321 98.6817 286.277 99.0209 286.143C99.3117 286.029 99.5372 285.898 99.6976 285.751C99.8579 285.603 99.9709 285.45 100.037 285.29C100.102 285.129 100.139 284.975 100.148 284.826L98.4041 280.399C98.3041 280.287 98.1754 280.195 98.0182 280.123C97.8638 280.044 97.6779 280.005 97.4602 280.007C97.2426 280.009 96.986 280.068 96.6904 280.184C96.3512 280.318 96.0953 280.514 95.9228 280.772C95.7502 281.03 95.6476 281.331 95.6148 281.674C95.5869 282.015 95.6135 282.388 95.6945 282.793C95.7785 283.191 95.9035 283.601 96.0696 284.022ZM101.343 289.821L95.7539 275.632L97.106 275.1L102.695 289.289L101.343 289.821ZM105.441 280.272L105.375 280.105C105.152 279.538 105.027 278.98 105.001 278.43C104.973 277.876 105.043 277.358 105.212 276.878C105.379 276.392 105.644 275.963 106.007 275.591C106.368 275.213 106.822 274.917 107.369 274.701C107.922 274.484 108.459 274.39 108.98 274.42C109.504 274.443 109.992 274.575 110.446 274.816C110.902 275.051 111.309 275.38 111.666 275.805C112.022 276.224 112.312 276.718 112.535 277.285L112.601 277.452C112.824 278.019 112.949 278.577 112.975 279.127C113.001 279.676 112.928 280.195 112.756 280.682C112.588 281.163 112.323 281.592 111.962 281.969C111.604 282.34 111.149 282.634 110.596 282.851C110.044 283.069 109.508 283.165 108.989 283.14C108.468 283.11 107.979 282.978 107.523 282.744C107.07 282.502 106.665 282.172 106.309 281.752C105.954 281.333 105.664 280.839 105.441 280.272ZM106.72 279.575L106.786 279.743C106.94 280.135 107.132 280.488 107.362 280.8C107.589 281.108 107.848 281.359 108.137 281.553C108.431 281.745 108.749 281.863 109.091 281.908C109.431 281.947 109.788 281.893 110.161 281.746C110.53 281.601 110.822 281.399 111.039 281.14C111.259 280.874 111.409 280.572 111.488 280.233C111.567 279.894 111.585 279.534 111.542 279.154C111.501 278.767 111.403 278.377 111.249 277.984L111.183 277.817C111.03 277.43 110.838 277.083 110.605 276.777C110.376 276.464 110.114 276.212 109.82 276.02C109.529 275.821 109.212 275.699 108.87 275.655C108.533 275.609 108.178 275.659 107.805 275.806C107.436 275.951 107.142 276.157 106.922 276.422C106.707 276.686 106.558 276.991 106.476 277.337C106.397 277.676 106.38 278.038 106.426 278.423C106.469 278.804 106.567 279.188 106.72 279.575ZM119.382 274.075L119.812 275.166L115.654 276.803L115.224 275.713L119.382 274.075ZM114.165 272.192L117.263 280.057L115.918 280.587L112.82 272.722L114.165 272.192ZM119.129 270.237L122.228 278.102L120.876 278.634L117.777 270.769L119.129 270.237ZM77.8931 312.678C78.147 313.323 78.2124 313.929 78.0895 314.498C77.9695 315.061 77.7009 315.558 77.2838 315.991C76.8714 316.422 76.3478 316.763 75.713 317.013C75.0782 317.263 74.4606 317.372 73.8601 317.34C73.2597 317.308 72.7238 317.127 72.2526 316.798C71.7795 316.463 71.416 315.974 71.1621 315.33C70.996 314.908 70.9242 314.491 70.9467 314.079C70.9721 313.661 71.0811 313.262 71.2736 312.884C71.471 312.504 71.7455 312.164 72.0972 311.863C72.4519 311.555 72.8763 311.304 73.3706 311.109C74.02 310.853 74.6487 310.751 75.2568 310.803C75.8629 310.85 76.3973 311.034 76.8599 311.355C77.3273 311.675 77.6717 312.116 77.8931 312.678ZM76.5296 313.182C76.375 312.789 76.1537 312.476 75.8658 312.242C75.5759 312.004 75.2449 311.86 74.8728 311.811C74.5007 311.761 74.1136 311.816 73.7113 311.974C73.2994 312.137 72.9767 312.362 72.743 312.65C72.5142 312.936 72.3776 313.264 72.3331 313.634C72.2867 313.999 72.3408 314.378 72.4954 314.771C72.6557 315.178 72.8731 315.495 73.1476 315.723C73.425 315.944 73.7444 316.073 74.106 316.11C74.4704 316.14 74.861 316.072 75.2778 315.908C75.6945 315.744 76.0235 315.528 76.2648 315.259C76.5042 314.986 76.6475 314.675 76.6948 314.326C76.745 313.97 76.69 313.589 76.5296 313.182ZM75.6903 307.811C75.8927 308.324 75.9393 308.841 75.8302 309.36C75.721 309.878 75.4782 310.349 75.1017 310.772C74.7252 311.194 74.2389 311.523 73.6428 311.758C73.0371 311.996 72.45 312.09 71.8816 312.04C71.318 311.988 70.8218 311.808 70.393 311.501C69.9642 311.194 69.6487 310.784 69.4463 310.27C69.2039 309.655 69.131 309.079 69.2277 308.543C69.3291 308.005 69.5701 307.529 69.9504 307.116C70.3307 306.703 70.8214 306.378 71.4222 306.142C72.028 305.903 72.6107 305.805 73.1705 305.848C73.7303 305.89 74.2284 306.075 74.6648 306.401C75.1061 306.725 75.4479 307.195 75.6903 307.811ZM74.3542 308.362C74.2148 308.009 74.0166 307.726 73.7595 307.513C73.5023 307.301 73.21 307.17 72.8824 307.12C72.5529 307.065 72.2112 307.107 71.8575 307.247C71.5037 307.386 71.2232 307.583 71.0158 307.838C70.8114 308.087 70.6875 308.376 70.6442 308.707C70.6057 309.036 70.66 309.386 70.807 309.76C70.9501 310.123 71.1478 310.412 71.4001 310.626C71.6572 310.838 71.9486 310.967 72.2743 311.012C72.6 311.057 72.9398 311.01 73.2935 310.871C73.6473 310.732 73.9254 310.535 74.1279 310.282C74.3353 310.027 74.4606 309.734 74.5039 309.403C74.5473 309.073 74.4973 308.726 74.3542 308.362ZM89.9594 307.925C90.2133 308.57 90.2788 309.176 90.1559 309.745C90.0359 310.308 89.7673 310.805 89.3501 311.238C88.9378 311.669 88.4142 312.01 87.7794 312.26C87.1445 312.51 86.5269 312.619 85.9265 312.587C85.326 312.555 84.7902 312.374 84.319 312.045C83.8458 311.71 83.4823 311.221 83.2285 310.576C83.0624 310.155 82.9906 309.738 83.0131 309.326C83.0385 308.908 83.1475 308.509 83.34 308.131C83.5373 307.751 83.8119 307.411 84.1636 307.11C84.5182 306.802 84.9427 306.551 85.437 306.356C86.0863 306.1 86.715 305.998 87.3231 306.05C87.9293 306.097 88.4637 306.281 88.9262 306.602C89.3936 306.922 89.738 307.363 89.9594 307.925ZM88.596 308.429C88.4414 308.036 88.2201 307.723 87.9321 307.489C87.6423 307.251 87.3113 307.107 86.9392 307.058C86.5671 307.008 86.1799 307.063 85.7777 307.221C85.3658 307.383 85.043 307.609 84.8094 307.897C84.5806 308.183 84.4439 308.511 84.3994 308.881C84.353 309.246 84.4071 309.625 84.5617 310.018C84.7221 310.425 84.9395 310.742 85.2139 310.97C85.4913 311.191 85.8108 311.32 86.1723 311.356C86.5368 311.386 86.9274 311.319 87.3441 311.155C87.7609 310.991 88.0899 310.775 88.3312 310.506C88.5705 310.233 88.7139 309.922 88.7612 309.573C88.8114 309.217 88.7563 308.836 88.596 308.429ZM87.7567 303.058C87.959 303.571 88.0056 304.088 87.8965 304.606C87.7874 305.125 87.5446 305.596 87.168 306.019C86.7915 306.441 86.3052 306.77 85.7092 307.005C85.1035 307.243 84.5164 307.337 83.9479 307.287C83.3843 307.235 82.8882 307.055 82.4594 306.748C82.0306 306.441 81.715 306.031 81.5127 305.517C81.2703 304.902 81.1974 304.326 81.294 303.79C81.3955 303.252 81.6364 302.776 82.0168 302.363C82.3971 301.95 82.8877 301.625 83.4886 301.389C84.0943 301.15 84.6771 301.052 85.2369 301.095C85.7966 301.137 86.2947 301.322 86.7311 301.648C87.1724 301.972 87.5143 302.442 87.7567 303.058ZM86.4205 303.609C86.2812 303.256 86.0829 302.973 85.8258 302.76C85.5687 302.548 85.2763 302.417 84.9487 302.367C84.6192 302.312 84.2776 302.354 83.9238 302.494C83.5701 302.633 83.2895 302.83 83.0822 303.085C82.8778 303.334 82.7539 303.623 82.7106 303.954C82.6721 304.283 82.7263 304.633 82.8733 305.007C83.0165 305.37 83.2142 305.659 83.4665 305.873C83.7236 306.085 84.015 306.214 84.3407 306.259C84.6664 306.304 85.0061 306.257 85.3599 306.118C85.7136 305.979 85.9918 305.782 86.1943 305.529C86.4016 305.274 86.527 304.981 86.5703 304.65C86.6136 304.32 86.5637 303.973 86.4205 303.609ZM97.0156 301.367L97.6513 302.981C97.993 303.848 98.2037 304.61 98.2834 305.268C98.3631 305.925 98.3292 306.492 98.1816 306.97C98.034 307.448 97.7867 307.851 97.4397 308.178C97.0956 308.498 96.6668 308.759 96.1531 308.962C95.7461 309.122 95.3505 309.219 94.9663 309.253C94.5822 309.286 94.2081 309.246 93.844 309.132C93.483 309.011 93.1339 308.807 92.7969 308.52C92.4599 308.233 92.1384 307.85 91.8324 307.372C91.5264 306.894 91.2369 306.308 90.9639 305.615L90.3283 304.001C89.9866 303.134 89.7778 302.376 89.7019 301.729C89.6308 301.08 89.671 300.521 89.8224 300.052C89.9719 299.579 90.2197 299.185 90.5656 298.87C90.9164 298.552 91.3463 298.293 91.8551 298.093C92.267 297.931 92.665 297.833 93.0492 297.799C93.4363 297.758 93.8084 297.794 94.1657 297.905C94.5211 298.011 94.8639 298.207 95.1941 298.491C95.5273 298.768 95.8459 299.144 96.15 299.617C96.4541 300.091 96.7427 300.674 97.0156 301.367ZM96.3852 303.731L95.5749 301.674C95.3878 301.199 95.1946 300.794 94.9952 300.458C94.7987 300.116 94.5966 299.837 94.3888 299.622C94.181 299.408 93.9632 299.253 93.7355 299.158C93.5126 299.061 93.2802 299.018 93.0383 299.029C92.7994 299.034 92.5491 299.088 92.2874 299.191C91.9676 299.317 91.708 299.489 91.5086 299.707C91.3072 299.921 91.1724 300.19 91.1039 300.513C91.0403 300.835 91.047 301.221 91.1239 301.673C91.2009 302.124 91.3567 302.647 91.5915 303.243L92.4018 305.3C92.5889 305.775 92.7807 306.184 92.9771 306.526C93.1785 306.867 93.3873 307.149 93.6038 307.371C93.8183 307.589 94.0389 307.751 94.2657 307.858C94.4924 307.964 94.7262 308.018 94.967 308.018C95.2108 308.012 95.4611 307.958 95.7179 307.857C96.0474 307.727 96.3109 307.55 96.5084 307.327C96.706 307.104 96.8346 306.826 96.8944 306.495C96.9571 306.157 96.9466 305.761 96.8629 305.306C96.7773 304.848 96.6181 304.323 96.3852 303.731ZM105.389 298.068L106.025 299.682C106.367 300.55 106.577 301.312 106.657 301.969C106.737 302.626 106.703 303.194 106.555 303.672C106.408 304.15 106.16 304.552 105.813 304.879C105.469 305.199 105.041 305.461 104.527 305.663C104.12 305.823 103.724 305.92 103.34 305.954C102.956 305.988 102.582 305.948 102.218 305.834C101.857 305.713 101.508 305.509 101.171 305.222C100.834 304.935 100.512 304.552 100.206 304.073C99.9001 303.595 99.6106 303.009 99.3377 302.316L98.702 300.703C98.3603 299.835 98.1516 299.078 98.0756 298.43C98.0046 297.781 98.0448 297.222 98.1962 296.754C98.3457 296.281 98.5934 295.887 98.9394 295.571C99.2902 295.254 99.72 294.995 100.229 294.795C100.641 294.632 101.039 294.534 101.423 294.5C101.81 294.46 102.182 294.495 102.539 294.606C102.895 294.713 103.238 294.908 103.568 295.192C103.901 295.47 104.22 295.845 104.524 296.319C104.828 296.792 105.116 297.376 105.389 298.068ZM104.759 300.433L103.949 298.376C103.762 297.901 103.568 297.496 103.369 297.16C103.172 296.817 102.97 296.539 102.763 296.324C102.555 296.109 102.337 295.954 102.109 295.859C101.886 295.762 101.654 295.719 101.412 295.731C101.173 295.735 100.923 295.789 100.661 295.892C100.341 296.018 100.082 296.19 99.8823 296.409C99.681 296.623 99.5461 296.891 99.4777 297.215C99.4141 297.537 99.4208 297.923 99.4977 298.374C99.5746 298.825 99.7305 299.349 99.9653 299.945L100.776 302.002C100.963 302.477 101.154 302.885 101.351 303.228C101.552 303.568 101.761 303.85 101.978 304.073C102.192 304.29 102.413 304.453 102.639 304.559C102.866 304.666 103.1 304.719 103.341 304.72C103.585 304.713 103.835 304.659 104.092 304.558C104.421 304.428 104.685 304.252 104.882 304.028C105.08 303.805 105.208 303.528 105.268 303.196C105.331 302.858 105.32 302.462 105.237 302.008C105.151 301.549 104.992 301.024 104.759 300.433ZM118.773 296.575C119.027 297.219 119.093 297.826 118.97 298.395C118.85 298.958 118.581 299.455 118.164 299.888C117.752 300.319 117.228 300.66 116.593 300.91C115.958 301.16 115.341 301.269 114.74 301.237C114.14 301.205 113.604 301.024 113.133 300.694C112.66 300.36 112.296 299.871 112.042 299.226C111.876 298.805 111.804 298.388 111.827 297.976C111.852 297.557 111.961 297.159 112.154 296.781C112.351 296.401 112.626 296.06 112.977 295.76C113.332 295.452 113.757 295.201 114.251 295.006C114.9 294.75 115.529 294.648 116.137 294.7C116.743 294.746 117.278 294.931 117.74 295.252C118.207 295.572 118.552 296.013 118.773 296.575ZM117.41 297.078C117.255 296.686 117.034 296.373 116.746 296.139C116.456 295.901 116.125 295.757 115.753 295.707C115.381 295.658 114.994 295.713 114.592 295.871C114.18 296.033 113.857 296.258 113.623 296.546C113.394 296.832 113.258 297.161 113.213 297.531C113.167 297.896 113.221 298.275 113.376 298.668C113.536 299.075 113.753 299.392 114.028 299.62C114.305 299.841 114.625 299.97 114.986 300.006C115.351 300.036 115.741 299.969 116.158 299.805C116.575 299.641 116.904 299.425 117.145 299.156C117.384 298.883 117.528 298.571 117.575 298.223C117.625 297.867 117.57 297.486 117.41 297.078ZM116.571 291.708C116.773 292.221 116.819 292.738 116.71 293.256C116.601 293.775 116.358 294.246 115.982 294.668C115.605 295.091 115.119 295.42 114.523 295.655C113.917 295.893 113.33 295.987 112.762 295.937C112.198 295.885 111.702 295.705 111.273 295.398C110.844 295.091 110.529 294.681 110.327 294.167C110.084 293.552 110.011 292.976 110.108 292.44C110.209 291.901 110.45 291.426 110.831 291.013C111.211 290.6 111.702 290.275 112.302 290.039C112.908 289.8 113.491 289.702 114.051 289.745C114.611 289.787 115.109 289.972 115.545 290.298C115.986 290.622 116.328 291.092 116.571 291.708ZM115.234 292.259C115.095 291.905 114.897 291.622 114.64 291.41C114.383 291.198 114.09 291.067 113.763 291.017C113.433 290.962 113.091 291.004 112.738 291.143C112.384 291.283 112.103 291.48 111.896 291.735C111.692 291.984 111.568 292.273 111.524 292.604C111.486 292.932 111.54 293.283 111.687 293.656C111.83 294.02 112.028 294.309 112.28 294.523C112.537 294.735 112.829 294.864 113.155 294.909C113.48 294.954 113.82 294.907 114.174 294.768C114.527 294.628 114.806 294.432 115.008 294.179C115.215 293.924 115.341 293.631 115.384 293.3C115.427 292.97 115.378 292.623 115.234 292.259ZM125.83 290.017L126.465 291.631C126.807 292.498 127.018 293.26 127.097 293.917C127.177 294.575 127.143 295.142 126.995 295.62C126.848 296.098 126.601 296.501 126.254 296.828C125.91 297.148 125.481 297.409 124.967 297.611C124.56 297.772 124.164 297.869 123.78 297.903C123.396 297.936 123.022 297.896 122.658 297.782C122.297 297.661 121.948 297.457 121.611 297.17C121.274 296.883 120.952 296.5 120.646 296.022C120.34 295.543 120.051 294.958 119.778 294.265L119.142 292.651C118.8 291.784 118.592 291.026 118.516 290.379C118.445 289.729 118.485 289.171 118.636 288.702C118.786 288.229 119.034 287.835 119.38 287.52C119.73 287.202 120.16 286.943 120.669 286.743C121.081 286.581 121.479 286.483 121.863 286.449C122.25 286.408 122.622 286.444 122.98 286.555C123.335 286.661 123.678 286.856 124.008 287.141C124.341 287.418 124.66 287.793 124.964 288.267C125.268 288.741 125.557 289.324 125.83 290.017ZM125.199 292.381L124.389 290.324C124.202 289.849 124.008 289.444 123.809 289.108C123.613 288.766 123.41 288.487 123.203 288.272C122.995 288.057 122.777 287.903 122.549 287.808C122.326 287.711 122.094 287.668 121.852 287.679C121.613 287.684 121.363 287.737 121.101 287.841C120.781 287.967 120.522 288.139 120.322 288.357C120.121 288.571 119.986 288.84 119.918 289.163C119.854 289.485 119.861 289.871 119.938 290.322C120.015 290.774 120.171 291.297 120.405 291.893L121.216 293.95C121.403 294.425 121.595 294.834 121.791 295.176C121.992 295.517 122.201 295.798 122.418 296.021C122.632 296.239 122.853 296.401 123.08 296.508C123.306 296.614 123.54 296.668 123.781 296.668C124.025 296.662 124.275 296.608 124.532 296.507C124.861 296.377 125.125 296.2 125.322 295.977C125.52 295.754 125.648 295.476 125.708 295.145C125.771 294.807 125.76 294.41 125.677 293.956C125.591 293.497 125.432 292.972 125.199 292.381ZM134.203 286.718L134.839 288.332C135.181 289.2 135.391 289.962 135.471 290.619C135.551 291.276 135.517 291.844 135.369 292.322C135.222 292.8 134.974 293.202 134.627 293.529C134.283 293.849 133.854 294.111 133.341 294.313C132.934 294.473 132.538 294.57 132.154 294.604C131.77 294.638 131.396 294.598 131.032 294.484C130.671 294.363 130.322 294.159 129.985 293.872C129.648 293.585 129.326 293.202 129.02 292.723C128.714 292.245 128.425 291.659 128.152 290.966L127.516 289.353C127.174 288.485 126.965 287.728 126.89 287.08C126.818 286.431 126.859 285.872 127.01 285.404C127.16 284.931 127.407 284.536 127.753 284.221C128.104 283.904 128.534 283.645 129.043 283.444C129.455 283.282 129.853 283.184 130.237 283.15C130.624 283.11 130.996 283.145 131.353 283.256C131.709 283.363 132.051 283.558 132.382 283.842C132.715 284.119 133.034 284.495 133.338 284.969C133.642 285.442 133.93 286.025 134.203 286.718ZM133.573 289.083L132.763 287.026C132.575 286.551 132.382 286.145 132.183 285.81C131.986 285.467 131.784 285.189 131.576 284.974C131.369 284.759 131.151 284.604 130.923 284.509C130.7 284.412 130.468 284.369 130.226 284.381C129.987 284.385 129.737 284.439 129.475 284.542C129.155 284.668 128.896 284.84 128.696 285.059C128.495 285.272 128.36 285.541 128.292 285.865C128.228 286.186 128.235 286.573 128.312 287.024C128.389 287.475 128.544 287.999 128.779 288.595L129.589 290.652C129.777 291.127 129.968 291.535 130.165 291.878C130.366 292.218 130.575 292.5 130.791 292.723C131.006 292.94 131.227 293.103 131.453 293.209C131.68 293.316 131.914 293.369 132.155 293.37C132.398 293.363 132.649 293.309 132.906 293.208C133.235 293.078 133.499 292.902 133.696 292.678C133.894 292.455 134.022 292.178 134.082 291.846C134.145 291.508 134.134 291.112 134.051 290.658C133.965 290.199 133.806 289.674 133.573 289.083ZM142.577 283.42L143.213 285.034C143.554 285.901 143.765 286.663 143.845 287.32C143.925 287.978 143.891 288.545 143.743 289.023C143.595 289.501 143.348 289.904 143.001 290.231C142.657 290.551 142.228 290.812 141.715 291.014C141.307 291.175 140.912 291.272 140.528 291.306C140.144 291.339 139.769 291.299 139.405 291.185C139.044 291.064 138.695 290.86 138.358 290.573C138.021 290.286 137.7 289.903 137.394 289.425C137.088 288.946 136.798 288.361 136.525 287.668L135.89 286.054C135.548 285.187 135.339 284.429 135.263 283.782C135.192 283.132 135.232 282.574 135.384 282.105C135.533 281.632 135.781 281.238 136.127 280.923C136.478 280.605 136.908 280.346 137.416 280.146C137.828 279.984 138.226 279.886 138.611 279.852C138.998 279.811 139.37 279.847 139.727 279.958C140.082 280.064 140.425 280.259 140.756 280.544C141.089 280.821 141.407 281.196 141.711 281.67C142.016 282.144 142.304 282.727 142.577 283.42ZM141.947 285.784L141.136 283.727C140.949 283.252 140.756 282.847 140.557 282.511C140.36 282.169 140.158 281.89 139.95 281.675C139.742 281.46 139.525 281.306 139.297 281.211C139.074 281.114 138.842 281.071 138.6 281.082C138.361 281.087 138.111 281.14 137.849 281.244C137.529 281.37 137.269 281.542 137.07 281.76C136.869 281.974 136.734 282.243 136.665 282.566C136.602 282.888 136.608 283.274 136.685 283.725C136.762 284.177 136.918 284.7 137.153 285.296L137.963 287.353C138.15 287.828 138.342 288.237 138.539 288.579C138.74 288.92 138.949 289.201 139.165 289.424C139.38 289.642 139.6 289.804 139.827 289.911C140.054 290.017 140.288 290.071 140.528 290.071C140.772 290.065 141.022 290.011 141.279 289.91C141.609 289.78 141.872 289.603 142.07 289.38C142.267 289.157 142.396 288.879 142.456 288.548C142.518 288.21 142.508 287.813 142.424 287.359C142.339 286.9 142.179 286.375 141.947 285.784ZM155.961 281.926C156.215 282.571 156.28 283.178 156.157 283.747C156.037 284.309 155.769 284.807 155.352 285.24C154.939 285.671 154.416 286.011 153.781 286.261C153.146 286.511 152.528 286.62 151.928 286.588C151.328 286.556 150.792 286.375 150.32 286.046C149.847 285.712 149.484 285.222 149.23 284.578C149.064 284.156 148.992 283.739 149.015 283.328C149.04 282.909 149.149 282.51 149.341 282.132C149.539 281.752 149.813 281.412 150.165 281.111C150.52 280.803 150.944 280.552 151.438 280.358C152.088 280.102 152.717 280 153.325 280.051C153.931 280.098 154.465 280.282 154.928 280.604C155.395 280.923 155.74 281.364 155.961 281.926ZM154.597 282.43C154.443 282.037 154.222 281.724 153.934 281.491C153.644 281.252 153.313 281.108 152.941 281.059C152.569 281.01 152.181 281.064 151.779 281.223C151.367 281.385 151.045 281.61 150.811 281.898C150.582 282.184 150.445 282.512 150.401 282.882C150.355 283.248 150.409 283.626 150.563 284.019C150.724 284.426 150.941 284.743 151.215 284.971C151.493 285.192 151.812 285.321 152.174 285.358C152.538 285.388 152.929 285.321 153.346 285.157C153.762 284.992 154.091 284.776 154.333 284.507C154.572 284.234 154.715 283.923 154.763 283.574C154.813 283.218 154.758 282.837 154.597 282.43ZM153.758 277.059C153.961 277.573 154.007 278.089 153.898 278.608C153.789 279.127 153.546 279.597 153.17 280.02C152.793 280.442 152.307 280.771 151.711 281.006C151.105 281.245 150.518 281.339 149.949 281.288C149.386 281.236 148.89 281.056 148.461 280.75C148.032 280.443 147.717 280.032 147.514 279.519C147.272 278.903 147.199 278.327 147.296 277.791C147.397 277.253 147.638 276.777 148.018 276.364C148.399 275.952 148.889 275.627 149.49 275.39C150.096 275.151 150.679 275.053 151.238 275.096C151.798 275.139 152.296 275.323 152.733 275.649C153.174 275.974 153.516 276.444 153.758 277.059ZM152.422 277.611C152.283 277.257 152.084 276.974 151.827 276.762C151.57 276.549 151.278 276.418 150.95 276.368C150.621 276.313 150.279 276.356 149.925 276.495C149.572 276.634 149.291 276.831 149.084 277.087C148.879 277.335 148.755 277.625 148.712 277.955C148.674 278.284 148.728 278.635 148.875 279.008C149.018 279.371 149.216 279.66 149.468 279.874C149.725 280.086 150.016 280.215 150.342 280.26C150.668 280.306 151.008 280.259 151.361 280.119C151.715 279.98 151.993 279.784 152.196 279.53C152.403 279.275 152.528 278.982 152.572 278.652C152.615 278.321 152.565 277.974 152.422 277.611ZM163.017 275.368L163.653 276.982C163.994 277.849 164.205 278.612 164.285 279.269C164.365 279.926 164.331 280.494 164.183 280.971C164.036 281.449 163.788 281.852 163.441 282.179C163.097 282.499 162.668 282.761 162.155 282.963C161.748 283.123 161.352 283.22 160.968 283.254C160.584 283.288 160.21 283.248 159.846 283.134C159.484 283.013 159.135 282.809 158.798 282.522C158.461 282.235 158.14 281.852 157.834 281.373C157.528 280.895 157.238 280.309 156.965 279.616L156.33 278.003C155.988 277.135 155.779 276.378 155.703 275.73C155.632 275.081 155.673 274.522 155.824 274.054C155.973 273.581 156.221 273.186 156.567 272.871C156.918 272.554 157.348 272.295 157.857 272.094C158.268 271.932 158.667 271.834 159.051 271.8C159.438 271.76 159.81 271.795 160.167 271.906C160.523 272.013 160.865 272.208 161.196 272.492C161.529 272.769 161.847 273.145 162.152 273.618C162.456 274.092 162.744 274.675 163.017 275.368ZM162.387 277.733L161.576 275.676C161.389 275.201 161.196 274.795 160.997 274.46C160.8 274.117 160.598 273.839 160.39 273.624C160.183 273.409 159.965 273.254 159.737 273.159C159.514 273.062 159.282 273.019 159.04 273.031C158.801 273.035 158.551 273.089 158.289 273.192C157.969 273.318 157.709 273.49 157.51 273.709C157.309 273.922 157.174 274.191 157.105 274.515C157.042 274.836 157.049 275.223 157.125 275.674C157.202 276.125 157.358 276.649 157.593 277.245L158.403 279.302C158.59 279.777 158.782 280.185 158.979 280.528C159.18 280.868 159.389 281.15 159.605 281.372C159.82 281.59 160.04 281.752 160.267 281.859C160.494 281.966 160.728 282.019 160.969 282.019C161.212 282.013 161.463 281.959 161.719 281.858C162.049 281.728 162.312 281.552 162.51 281.328C162.707 281.105 162.836 280.828 162.896 280.496C162.959 280.158 162.948 279.762 162.864 279.308C162.779 278.849 162.62 278.324 162.387 277.733ZM171.391 272.07L172.027 273.683C172.368 274.551 172.579 275.313 172.659 275.97C172.738 276.627 172.704 277.195 172.557 277.673C172.409 278.151 172.162 278.553 171.815 278.88C171.471 279.201 171.042 279.462 170.528 279.664C170.121 279.825 169.726 279.922 169.342 279.956C168.957 279.989 168.583 279.949 168.219 279.835C167.858 279.714 167.509 279.51 167.172 279.223C166.835 278.936 166.514 278.553 166.208 278.075C165.902 277.596 165.612 277.011 165.339 276.318L164.704 274.704C164.362 273.837 164.153 273.079 164.077 272.432C164.006 271.782 164.046 271.224 164.198 270.755C164.347 270.282 164.595 269.888 164.941 269.572C165.292 269.255 165.722 268.996 166.23 268.796C166.642 268.634 167.04 268.536 167.424 268.502C167.812 268.461 168.184 268.497 168.541 268.608C168.896 268.714 169.239 268.909 169.569 269.194C169.903 269.471 170.221 269.846 170.525 270.32C170.829 270.794 171.118 271.377 171.391 272.07ZM170.76 274.434L169.95 272.377C169.763 271.902 169.57 271.497 169.37 271.161C169.174 270.819 168.972 270.54 168.764 270.325C168.556 270.11 168.339 269.955 168.111 269.86C167.888 269.764 167.655 269.721 167.414 269.732C167.175 269.737 166.924 269.79 166.663 269.893C166.343 270.019 166.083 270.192 165.884 270.41C165.683 270.624 165.548 270.892 165.479 271.216C165.416 271.538 165.422 271.924 165.499 272.375C165.576 272.826 165.732 273.35 165.967 273.946L166.777 276.003C166.964 276.478 167.156 276.887 167.352 277.229C167.554 277.57 167.763 277.851 167.979 278.074C168.194 278.292 168.414 278.454 168.641 278.561C168.868 278.667 169.101 278.721 169.342 278.721C169.586 278.714 169.836 278.661 170.093 278.559C170.423 278.43 170.686 278.253 170.884 278.03C171.081 277.806 171.21 277.529 171.27 277.198C171.332 276.859 171.322 276.463 171.238 276.009C171.153 275.55 170.993 275.025 170.76 274.434Z" fill="white"/>
<path d="M135.615 228.316C135.378 227.714 135.074 227.219 134.704 226.833C134.34 226.43 133.854 226.131 133.244 225.934C132.647 225.733 131.879 225.619 130.94 225.593C130.014 225.562 128.873 225.609 127.517 225.734C126.092 225.859 124.775 225.893 123.566 225.837C122.352 225.77 121.261 225.579 120.291 225.265C119.321 224.951 118.488 224.481 117.791 223.855C117.094 223.229 116.548 222.414 116.153 221.41C115.757 220.406 115.599 219.397 115.677 218.384C115.755 217.371 116.055 216.4 116.576 215.471C117.105 214.526 117.837 213.665 118.772 212.887C119.707 212.109 120.836 211.46 122.159 210.939C124.096 210.176 125.885 209.901 127.525 210.115C129.171 210.312 130.584 210.868 131.763 211.781C132.937 212.683 133.789 213.808 134.319 215.154L130.918 216.494C130.536 215.526 129.992 214.751 129.285 214.17C128.574 213.576 127.716 213.232 126.709 213.138C125.699 213.031 124.55 213.231 123.262 213.738C122.045 214.217 121.113 214.796 120.466 215.474C119.819 216.152 119.424 216.881 119.281 217.66C119.149 218.435 119.242 219.224 119.558 220.027C119.772 220.571 120.08 221.023 120.481 221.383C120.89 221.727 121.41 221.993 122.044 222.18C122.689 222.362 123.452 222.464 124.333 222.485C125.227 222.502 126.263 222.448 127.443 222.325C129.07 222.161 130.516 222.124 131.779 222.213C133.042 222.303 134.142 222.531 135.078 222.899C136.021 223.251 136.817 223.763 137.464 224.436C138.118 225.092 138.643 225.923 139.039 226.927C139.453 227.978 139.615 229.012 139.524 230.03C139.434 231.048 139.112 232.014 138.558 232.929C138.004 233.843 137.237 234.684 136.257 235.452C135.284 236.204 134.118 236.847 132.76 237.382C131.567 237.852 130.326 238.15 129.038 238.275C127.762 238.395 126.522 238.311 125.316 238.022C124.122 237.728 123.051 237.208 122.103 236.463C121.161 235.701 120.437 234.677 119.93 233.389L123.332 232.049C123.681 232.935 124.152 233.63 124.746 234.132C125.335 234.624 126.006 234.96 126.76 235.14C127.525 235.316 128.325 235.356 129.16 235.259C130.003 235.146 130.837 234.926 131.664 234.6C132.857 234.13 133.802 233.567 134.498 232.911C135.195 232.254 135.635 231.535 135.818 230.753C136.013 229.967 135.946 229.155 135.615 228.316ZM139.237 204.621L149.399 230.418L145.979 231.765L135.818 205.968L139.237 204.621ZM154.811 198.486L148.831 214.739L145.27 223.367L143.266 219.94L145.833 213.157L150.701 200.105L154.811 198.486ZM161.678 225.582L147.172 216.764L148.142 213.25L165.753 223.976L161.678 225.582ZM162.27 195.548L172.432 221.345L169.013 222.692L158.851 196.895L162.27 195.548ZM180.126 204.09L181.187 206.783L172.54 210.189L171.48 207.496L180.126 204.09ZM194.209 201.08L187.317 203.795L186.221 201.014L193.113 198.299C194.448 197.773 195.445 197.135 196.104 196.384C196.764 195.633 197.133 194.805 197.214 193.9C197.306 192.99 197.161 192.051 196.779 191.083C196.43 190.197 195.907 189.441 195.211 188.815C194.526 188.184 193.677 187.796 192.664 187.649C191.646 187.49 190.47 187.674 189.135 188.199L183.04 190.6L192.099 213.598L188.68 214.945L178.518 189.148L188.032 185.4C189.981 184.632 191.762 184.32 193.373 184.463C194.985 184.606 196.375 185.136 197.541 186.055C198.704 186.961 199.585 188.177 200.185 189.7C200.836 191.354 201.044 192.903 200.808 194.347C200.571 195.791 199.901 197.085 198.796 198.23C197.687 199.362 196.158 200.313 194.209 201.08ZM209.415 179.618L210.136 206.493L206.646 207.868L206.317 178.197L208.567 177.311L209.415 179.618ZM225.834 200.31L208.015 180.169L207.061 177.904L209.312 177.018L229.342 198.928L225.834 200.31ZM221.629 190.934L222.732 193.734L208.239 199.443L207.136 196.643L221.629 190.934ZM243.978 185.631C243.741 185.028 243.437 184.534 243.066 184.148C242.703 183.745 242.217 183.445 241.607 183.249C241.009 183.048 240.241 182.934 239.303 182.908C238.377 182.877 237.236 182.924 235.879 183.049C234.455 183.174 233.138 183.208 231.929 183.152C230.715 183.084 229.623 182.894 228.654 182.58C227.684 182.266 226.851 181.796 226.154 181.17C225.457 180.544 224.911 179.729 224.515 178.725C224.12 177.721 223.961 176.712 224.04 175.699C224.118 174.685 224.418 173.714 224.939 172.786C225.468 171.841 226.199 170.98 227.135 170.202C228.07 169.424 229.199 168.775 230.522 168.254C232.459 167.491 234.248 167.216 235.887 167.43C237.534 167.627 238.947 168.182 240.126 169.096C241.3 169.998 242.152 171.123 242.682 172.469L239.28 173.809C238.899 172.841 238.355 172.066 237.648 171.484C236.937 170.891 236.078 170.547 235.072 170.452C234.061 170.346 232.912 170.546 231.625 171.053C230.408 171.532 229.476 172.111 228.829 172.789C228.182 173.467 227.787 174.195 227.644 174.975C227.512 175.75 227.605 176.539 227.921 177.342C228.135 177.886 228.443 178.337 228.844 178.698C229.252 179.042 229.773 179.307 230.406 179.495C231.051 179.677 231.815 179.779 232.696 179.8C233.59 179.817 234.626 179.763 235.805 179.64C237.433 179.476 238.878 179.439 240.141 179.528C241.405 179.617 242.504 179.846 243.441 180.214C244.384 180.565 245.179 181.078 245.827 181.751C246.481 182.407 247.006 183.237 247.401 184.241C247.815 185.293 247.977 186.327 247.887 187.345C247.797 188.363 247.475 189.329 246.921 190.243C246.366 191.157 245.599 191.999 244.619 192.767C243.646 193.518 242.481 194.162 241.122 194.697C239.929 195.167 238.689 195.464 237.401 195.59C236.125 195.71 234.884 195.626 233.679 195.337C232.485 195.043 231.414 194.523 230.466 193.778C229.524 193.016 228.8 191.992 228.293 190.704L231.695 189.364C232.044 190.25 232.515 190.944 233.109 191.447C233.698 191.938 234.369 192.274 235.123 192.455C235.888 192.631 236.688 192.671 237.523 192.574C238.365 192.46 239.2 192.241 240.027 191.915C241.22 191.445 242.165 190.882 242.861 190.225C243.558 189.569 243.998 188.85 244.181 188.068C244.376 187.282 244.308 186.469 243.978 185.631ZM265.523 177.144C265.286 176.542 264.982 176.047 264.611 175.661C264.248 175.258 263.762 174.959 263.152 174.762C262.554 174.561 261.786 174.447 260.848 174.421C259.922 174.39 258.781 174.437 257.424 174.562C256 174.687 254.683 174.721 253.474 174.665C252.26 174.598 251.168 174.407 250.199 174.093C249.229 173.779 248.396 173.309 247.699 172.683C247.002 172.057 246.456 171.242 246.06 170.238C245.665 169.234 245.506 168.225 245.585 167.212C245.663 166.199 245.963 165.228 246.484 164.299C247.013 163.354 247.744 162.493 248.68 161.715C249.615 160.937 250.744 160.288 252.067 159.767C254.004 159.004 255.793 158.729 257.432 158.943C259.079 159.14 260.492 159.696 261.671 160.609C262.845 161.511 263.697 162.636 264.227 163.982L260.825 165.322C260.444 164.354 259.9 163.579 259.193 162.997C258.482 162.404 257.623 162.06 256.617 161.966C255.606 161.859 254.457 162.059 253.17 162.566C251.953 163.045 251.021 163.624 250.374 164.302C249.727 164.98 249.332 165.709 249.189 166.488C249.057 167.263 249.15 168.052 249.466 168.855C249.68 169.399 249.988 169.851 250.389 170.211C250.797 170.555 251.318 170.821 251.951 171.008C252.596 171.19 253.36 171.292 254.241 171.313C255.135 171.33 256.171 171.276 257.35 171.153C258.978 170.989 260.423 170.952 261.686 171.041C262.95 171.131 264.049 171.359 264.986 171.727C265.929 172.079 266.724 172.591 267.372 173.264C268.026 173.92 268.551 174.751 268.946 175.755C269.36 176.806 269.522 177.84 269.432 178.858C269.342 179.876 269.02 180.842 268.466 181.757C267.911 182.671 267.144 183.512 266.164 184.28C265.191 185.032 264.026 185.675 262.667 186.21C261.474 186.68 260.234 186.978 258.946 187.103C257.67 187.223 256.429 187.139 255.224 186.85C254.03 186.556 252.959 186.036 252.011 185.291C251.069 184.529 250.345 183.505 249.838 182.217L253.24 180.877C253.589 181.763 254.06 182.458 254.654 182.96C255.243 183.452 255.914 183.787 256.668 183.968C257.433 184.144 258.233 184.184 259.068 184.087C259.91 183.974 260.745 183.754 261.572 183.428C262.765 182.958 263.71 182.395 264.406 181.739C265.103 181.082 265.543 180.363 265.726 179.581C265.921 178.795 265.853 177.983 265.523 177.144Z" fill="white"/>
<path d="M52.9756 192.081L38.1704 247.728L86.9492 278.328L102.602 222.347L52.9756 192.081Z" stroke="white"/>
<g clip-path="url(#clip1_578_2)">
<path d="M81.1385 255.768L81.4999 256.066L81.6099 255.2C81.6099 255.2 81.6642 253.482 82.0764 254.421C82.6336 255.223 82.3734 254.246 82.3734 254.246C82.3671 254.127 81.7336 251.841 82.7985 254.248C83.863 256.654 83.0741 254.257 83.1752 254.29C84.7219 254.792 87.3637 256.93 87.3637 256.93L84.1056 258.213L84.3129 258.384L87.8306 256.998L81.4826 251.767L81.1385 255.768Z" fill="white"/>
<path d="M80.1555 255.598L79.6333 255.167L70.8884 247.964L69.4444 264.774L79.136 260.956L84.2248 258.952L83.9244 258.704L80.1555 255.598ZM79.5596 260.258L79.1837 260.406L70.0284 264.012L71.1563 255.177C71.1563 255.177 71.2722 251.568 72.135 253.539C73.3061 255.224 72.7606 253.171 72.7606 253.171C72.7475 252.923 71.4148 248.12 73.6531 253.175C75.8919 258.229 74.2311 253.194 74.4444 253.263C75.9188 253.743 77.8668 254.93 79.5548 256.082C79.7217 256.197 79.8873 256.31 80.0494 256.424C81.848 257.681 83.2413 258.808 83.2413 258.808L79.5596 260.258Z" fill="white"/>
<path d="M75.8966 250.497L78.4628 252.448L81.575 251.222L82.1217 248.045L79.5551 246.094L76.443 247.32L75.8966 250.497ZM78.2977 249.823L77.4798 250.145L77.3873 249.91L78.2052 249.588L78.2977 249.823ZM79.3105 247.138L80.5922 248.214L77.1306 249.578L77.3339 247.917L79.3105 247.138Z" fill="white"/>
<path d="M78.444 245.555L76.8828 246.17L77.054 246.605L78.6152 245.99L78.444 245.555Z" fill="white"/>
<path d="M77.3718 243.759L77.3779 243.677L76.0803 243.636L76.0753 243.703L70.1645 243.453L70.126 243.93L76.0428 244.18L76.0418 244.187L76.3149 244.195L76.3132 244.266L77.5649 244.773L77.2184 245.518L77.5349 245.646L78.0249 244.592L77.1197 244.226L86.3202 244.615L86.3583 244.139L77.3718 243.759Z" fill="white"/>
</g>
<line y1="-0.297343" x2="62.3171" y2="-0.297343" transform="matrix(0.927037 -0.374971 0.374203 0.927347 42.0664 247.021)" stroke="white" stroke-width="0.594686"/>
<path d="M52.1826 238.513C52.1102 238.329 52.0175 238.178 51.9046 238.06C51.7938 237.938 51.6454 237.846 51.4595 237.786C51.2772 237.725 51.043 237.69 50.7569 237.682C50.4744 237.673 50.1264 237.687 49.7128 237.725C49.2783 237.763 48.8767 237.774 48.508 237.757C48.1378 237.736 47.8049 237.678 47.5092 237.582C47.2135 237.486 46.9594 237.343 46.7469 237.152C46.5343 236.961 46.3678 236.713 46.2471 236.406C46.1265 236.1 46.0782 235.793 46.1021 235.484C46.126 235.175 46.2174 234.879 46.3764 234.595C46.5375 234.307 46.7607 234.045 47.0459 233.807C47.3312 233.57 47.6755 233.372 48.079 233.213C48.6697 232.98 49.2151 232.897 49.7152 232.962C50.2174 233.022 50.6483 233.191 51.0077 233.47C51.3657 233.745 51.6256 234.088 51.7874 234.499L50.75 234.907C50.6336 234.612 50.4677 234.376 50.2522 234.198C50.0353 234.018 49.7735 233.913 49.4666 233.884C49.1583 233.851 48.8079 233.912 48.4152 234.067C48.0442 234.213 47.76 234.389 47.5627 234.596C47.3653 234.803 47.2448 235.025 47.2011 235.263C47.161 235.499 47.1892 235.74 47.2857 235.985C47.351 236.151 47.4448 236.288 47.5672 236.398C47.6917 236.503 47.8506 236.584 48.0437 236.641C48.2404 236.697 48.4731 236.728 48.742 236.734C49.0145 236.74 49.3305 236.723 49.6902 236.686C50.1865 236.636 50.6273 236.624 51.0125 236.652C51.3978 236.679 51.7332 236.748 52.0187 236.861C52.3064 236.968 52.549 237.124 52.7463 237.329C52.9459 237.529 53.106 237.783 53.2266 238.089C53.3529 238.409 53.4022 238.725 53.3747 239.035C53.3472 239.346 53.249 239.64 53.08 239.919C52.911 240.198 52.6771 240.455 52.3782 240.689C52.0815 240.918 51.726 241.114 51.3117 241.277C50.9479 241.421 50.5696 241.512 50.1769 241.55C49.7877 241.586 49.4093 241.561 49.0417 241.473C48.6776 241.383 48.351 241.224 48.0617 240.997C47.7746 240.765 47.5538 240.452 47.3991 240.06L48.4366 239.651C48.543 239.921 48.6867 240.133 48.8678 240.286C49.0475 240.436 49.2522 240.539 49.482 240.594C49.7154 240.648 49.9594 240.66 50.2141 240.63C50.4709 240.595 50.7254 240.528 50.9776 240.429C51.3414 240.286 51.6295 240.114 51.842 239.914C52.0544 239.714 52.1885 239.494 52.2444 239.256C52.3039 239.016 52.2833 238.768 52.1826 238.513ZM53.2872 231.286L56.3862 239.154L55.3433 239.565L52.2443 231.697L53.2872 231.286ZM58.0367 229.415L56.2129 234.372L55.1271 237.003L54.5157 235.958L55.2988 233.89L56.7831 229.909L58.0367 229.415ZM60.1307 237.679L55.7071 234.99L56.0028 233.918L61.3735 237.189L60.1307 237.679ZM60.3116 228.519L63.4106 236.387L62.3677 236.798L59.2687 228.93L60.3116 228.519ZM65.7569 231.124L66.0804 231.946L63.4436 232.984L63.1201 232.163L65.7569 231.124ZM70.0518 230.207L67.9498 231.035L67.6157 230.186L69.7176 229.358C70.1246 229.198 70.4287 229.003 70.6298 228.774C70.8309 228.545 70.9436 228.293 70.9681 228.017C70.9961 227.739 70.952 227.453 70.8356 227.158C70.7292 226.888 70.5697 226.657 70.3572 226.466C70.1483 226.274 69.8894 226.155 69.5805 226.11C69.2701 226.062 68.9114 226.118 68.5044 226.278L66.6456 227.011L69.4083 234.024L68.3655 234.435L65.2665 226.568L68.1681 225.425C68.7625 225.191 69.3054 225.095 69.7969 225.139C70.2885 225.182 70.7122 225.344 71.068 225.624C71.4225 225.901 71.6912 226.271 71.8742 226.736C72.0729 227.24 72.1362 227.713 72.0641 228.153C71.9921 228.593 71.7876 228.988 71.4508 229.337C71.1125 229.683 70.6461 229.973 70.0518 230.207ZM74.689 223.661L74.909 231.857L73.8445 232.277L73.7444 223.228L74.4306 222.958L74.689 223.661ZM79.6964 229.972L74.2621 223.829L73.9713 223.139L74.6575 222.868L80.7663 229.55L79.6964 229.972ZM78.4141 227.112L78.7504 227.966L74.3304 229.707L73.9941 228.853L78.4141 227.112ZM78.7209 221.268L81.3253 220.242C81.9161 220.009 82.4505 219.903 82.9285 219.922C83.4101 219.941 83.8267 220.085 84.1783 220.354C84.5321 220.618 84.8097 221.006 85.0112 221.518C85.1531 221.878 85.2091 222.237 85.1791 222.594C85.1514 222.946 85.0418 223.28 84.8503 223.597C84.661 223.909 84.3972 224.19 84.0586 224.44L83.8116 224.668L81.3638 225.632L81.0189 224.788L82.8668 224.06C83.2414 223.913 83.5275 223.725 83.725 223.497C83.921 223.266 84.0381 223.014 84.0762 222.741C84.1143 222.468 84.0802 222.196 83.9737 221.926C83.8545 221.624 83.6908 221.382 83.4825 221.202C83.2743 221.022 83.0181 220.921 82.7141 220.899C82.4123 220.873 82.0615 220.938 81.6616 221.096L80.1 221.711L82.8628 228.724L81.8199 229.135L78.7209 221.268ZM86.4182 227.324L83.1006 224.511L84.1846 224.078L87.5057 226.821L87.5313 226.885L86.4182 227.324ZM86.5828 218.171L89.6818 226.038L88.639 226.449L85.54 218.582L86.5828 218.171ZM91.3324 216.3L89.5086 221.257L88.4228 223.888L87.8114 222.843L88.5944 220.774L90.0788 216.794L91.3324 216.3ZM93.4264 224.563L89.0028 221.874L89.2985 220.803L94.6692 224.074L93.4264 224.563Z" fill="#FFFEFE"/>
<defs>
<filter id="filter0_bd_578_2" x="93.2891" y="3.28003" width="310.668" height="250.809" filterUnits="userSpaceOnUse" color-interpolation-filters="sRGB">
<feFlood flood-opacity="0" result="BackgroundImageFix"/>
<feGaussianBlur in="BackgroundImageFix" stdDeviation="2"/>
<feComposite in2="SourceAlpha" operator="in" result="effect1_backgroundBlur_578_2"/>
<feColorMatrix in="SourceAlpha" type="matrix" values="0 0 0 0 0 0 0 0 0 0 0 0 0 0 0 0 0 0 127 0" result="hardAlpha"/>
<feOffset dy="4"/>
<feGaussianBlur stdDeviation="2"/>
<feComposite in2="hardAlpha" operator="out"/>
<feColorMatrix type="matrix" values="0 0 0 0 0 0 0 0 0 0 0 0 0 0 0 0 0 0 0.25 0"/>
<feBlend mode="normal" in2="effect1_backgroundBlur_578_2" result="effect2_dropShadow_578_2"/>
<feBlend mode="normal" in="SourceGraphic" in2="effect2_dropShadow_578_2" result="shape"/>
</filter>
<filter id="filter1_bd_578_2" x="2.97656" y="102.213" width="313.613" height="242.562" filterUnits="userSpaceOnUse" color-interpolation-filters="sRGB">
<feFlood flood-opacity="0" result="BackgroundImageFix"/>
<feGaussianBlur in="BackgroundImageFix" stdDeviation="2"/>
<feComposite in2="SourceAlpha" operator="in" result="effect1_backgroundBlur_578_2"/>
<feColorMatrix in="SourceAlpha" type="matrix" values="0 0 0 0 0 0 0 0 0 0 0 0 0 0 0 0 0 0 127 0" result="hardAlpha"/>
<feOffset dx="4" dy="4"/>
<feGaussianBlur stdDeviation="2"/>
<feComposite in2="hardAlpha" operator="out"/>
<feColorMatrix type="matrix" values="0 0 0 0 0 0 0 0 0 0 0 0 0 0 0 0 0 0 0.25 0"/>
<feBlend mode="normal" in2="effect1_backgroundBlur_578_2" result="effect2_dropShadow_578_2"/>
<feBlend mode="normal" in="SourceGraphic" in2="effect2_dropShadow_578_2" result="shape"/>
</filter>
<linearGradient id="paint0_linear_578_2" x1="289.578" y1="6" x2="289.578" y2="150" gradientUnits="userSpaceOnUse">
<stop stop-color="#119DA4"/>
<stop offset="1" stop-color="#333333" stop-opacity="0.56"/>
</linearGradient>
<linearGradient id="paint1_linear_578_2" x1="289.578" y1="6" x2="289.578" y2="150" gradientUnits="userSpaceOnUse">
<stop offset="0.170132" stop-color="white"/>
<stop offset="0.331593" stop-color="white"/>
</linearGradient>
<linearGradient id="paint2_linear_578_2" x1="141.614" y1="150.492" x2="194.39" y2="284.472" gradientUnits="userSpaceOnUse">
<stop stop-color="#119DA4"/>
<stop offset="1" stop-color="#707070"/>
</linearGradient>
<clipPath id="clip0_578_2">
<rect width="23.3005" height="22.1639" fill="white" transform="translate(154.316 71.1057) rotate(24)"/>
</clipPath>
<clipPath id="clip1_578_2">
<rect width="23.3005" height="22.1639" fill="white" transform="translate(61.793 245.358) rotate(-21.5)"/>
</clipPath>
</defs>
</svg>
